# Blender v2.79 (sub 0) OBJ File: 'Tree.blend'
# www.blender.org
mtllib wood.mtl
o Cube
v 0.073519 -1.030279 -0.643047
v 0.341998 -1.060516 -0.321809
v 0.993259 5.076680 -1.402987
v 0.757371 5.103289 -1.682811
v 0.342954 -1.052631 0.131057
v 0.097436 -1.014561 0.426205
v 0.779386 5.113932 -0.914786
v 0.970813 5.086335 -1.026982
v -0.346812 -0.955126 0.426108
v -0.593720 -0.927319 0.130680
v 0.239841 5.183566 -1.059044
v 0.459293 5.157122 -0.894174
v -0.594537 -0.934058 -0.256371
v -0.272819 -0.983943 -0.643122
v 0.431422 5.148166 -1.611153
v 0.239245 5.178651 -1.341345
v 0.233033 0.073695 -0.801269
v 0.308260 0.773990 -0.949425
v 0.524380 2.223123 -1.469238
v 0.819568 2.189878 -1.116043
v 0.595982 0.950731 -0.641792
v 0.517588 0.041927 -0.445011
v 0.518534 0.049732 0.003266
v 0.596909 0.958371 -0.202964
v 0.826716 2.219317 -0.770870
v 0.458928 2.274265 -0.446380
v 0.359002 0.995261 0.083035
v 0.258378 0.090353 0.331876
v -0.212416 0.153339 0.331774
v -0.071259 1.054634 0.185196
v -0.029306 2.341340 -0.347276
v -0.203141 2.357096 -0.771284
v -0.310728 1.079799 -0.203329
v -0.474078 0.182808 0.018692
v -0.474944 0.175667 -0.391487
v -0.311520 1.073269 -0.578382
v -0.204039 2.349687 -1.196840
v 0.150691 2.442885 -1.517064
v -0.026662 0.968526 -1.010866
v -0.134002 0.122800 -0.801349
v 0.675257 3.451017 -1.778243
v 0.932700 3.441344 -1.064629
v -0.003462 3.559599 -1.460004
v 0.949245 3.420160 -1.450413
v -0.002628 3.566476 -1.065009
v 0.325362 3.582712 -1.802192
v 0.901466 2.966863 -1.327214
v -0.076507 3.120880 -0.956786
v 0.261004 3.162743 -1.697136
v 0.619666 2.998600 -1.664390
v 0.893650 2.991088 -0.956394
v -0.077365 3.113807 -1.363041
v 0.433261 3.513722 -0.750503
v 0.589216 3.280871 -0.709109
v 0.703843 3.475816 -0.846870
v 0.639043 3.607713 -0.778031
v 0.677172 4.950723 -0.760899
v 0.637929 4.978923 -0.842938
v 0.250762 3.083361 -0.602585
v 0.124582 3.371197 -0.659163
v 0.019556 3.112006 -0.731917
v 0.061368 2.948151 -0.531046
v 0.527246 4.988265 -0.802165
v 0.553605 4.956181 -0.703197
v 0.577174 3.187833 -0.684826
v 0.472990 3.053066 -0.634411
v 0.547586 2.959238 -0.625161
v 0.620752 3.032059 -0.704362
v 0.626054 4.937975 -0.688492
v 0.668107 4.943056 -0.730571
v 0.134962 3.440660 -0.680200
v 0.221423 3.542579 -0.721374
v 0.172575 3.618059 -0.723791
v 0.123489 3.554681 -0.777936
v 0.568875 4.995919 -0.857146
v 0.534501 4.993109 -0.825212
v 0.476812 4.172525 -0.351148
v 0.498452 3.626517 -0.208810
v 0.370554 3.770930 -0.378388
v 0.382972 4.214912 -0.485410
v 0.179251 3.604393 -0.013045
v 0.269010 4.221023 -0.215349
v 0.194117 4.264004 -0.383412
v 0.082092 3.771584 -0.226947
v 0.481675 3.582503 -0.135162
v 0.468576 4.167021 -0.294797
v 0.403885 4.175732 -0.208689
v 0.378758 3.538516 -0.017553
v 0.254287 4.257428 -0.492006
v 0.180263 3.832971 -0.374867
v 0.095633 3.802496 -0.283848
v 0.200859 4.266409 -0.426126
vn -0.1326 -0.9910 0.0175
vn 0.9983 -0.0262 0.0522
vn 0.7660 -0.0014 -0.6429
vn -0.0184 -0.1392 -0.9901
vn 0.1707 0.9493 0.2640
vn -0.8855 0.2463 0.3940
vn 0.1326 0.9910 -0.0175
vn -0.7525 0.1449 -0.6424
vn -0.9889 0.1483 -0.0005
vn -0.9942 0.1072 0.0002
vn -0.9839 0.1789 -0.0010
vn -0.9964 0.0842 0.0006
vn -0.7685 0.0049 -0.6399
vn -0.8036 -0.0105 -0.5951
vn -0.7507 -0.1819 -0.6351
vn -0.7523 0.1459 0.6425
vn -0.7786 0.2498 0.5756
vn -0.8596 0.2430 0.4495
vn 0.7723 -0.0541 0.6329
vn 0.7793 0.0791 0.6216
vn 0.7105 0.1993 0.6749
vn -0.0195 -0.2408 -0.9704
vn -0.0446 -0.3255 -0.9445
vn 0.0069 -0.2262 -0.9741
vn 0.7511 -0.1945 -0.6309
vn 0.7631 -0.2043 -0.6132
vn 0.7413 -0.3361 -0.5809
vn 0.0110 0.0835 0.9964
vn 0.1364 0.1944 0.9714
vn 0.2467 0.3589 0.9002
vn 0.9876 -0.1572 0.0007
vn 0.9963 -0.0861 -0.0006
vn 0.9838 -0.1791 -0.0017
vn -0.0464 0.0913 -0.9947
vn -0.9866 0.1634 -0.0008
vn -0.7082 -0.0512 -0.7041
vn 0.1991 0.2396 0.9502
vn 0.7313 -0.2496 -0.6347
vn -0.0321 -0.4233 -0.9054
vn 0.9956 -0.0861 0.0372
vn 0.9956 -0.0936 0.0079
vn 0.9727 -0.1577 0.1702
vn 0.6882 0.1063 0.7177
vn -0.6783 -0.0625 -0.7321
vn -0.0227 -0.2404 -0.9704
vn 0.0730 0.5238 0.8487
vn -0.8914 0.2445 0.3817
vn -0.9281 0.3360 -0.1605
vn 0.3497 0.1420 0.9260
vn 0.8339 0.5117 -0.2069
vn 0.6343 -0.0126 0.7730
vn -0.4320 0.3199 0.8432
vn -0.7069 0.5642 0.4266
vn -0.7842 0.1661 0.5978
vn 0.4414 0.1727 0.8805
vn 0.7601 0.1656 0.6283
vn 0.6747 0.1101 0.7299
vn -0.4486 0.3018 0.8412
vn -0.7379 0.4656 -0.4887
vn 0.1014 0.0846 0.9912
vn -0.7446 -0.0186 -0.6672
vn -0.7471 -0.0429 -0.6633
vn 0.7638 -0.4494 0.4633
vn 0.7447 0.1774 0.6434
vn -0.9214 -0.3342 0.1986
vn -0.7887 0.3144 0.5283
vn 0.6686 -0.4800 -0.5680
vn 0.7502 -0.1549 -0.6428
vn -0.9790 0.0923 -0.1816
vn -0.9742 0.1779 -0.1388
vn -0.1217 -0.7703 0.6259
vn 0.0905 0.2906 0.9526
vn 0.9759 -0.0542 0.2113
vn 0.9713 0.0888 0.2207
vn 0.1325 0.7975 -0.5886
vn -0.0702 -0.2427 -0.9675
usemtl Material
s off
f 1//1 2//1 5//1 6//1 9//1 10//1 13//1 14//1
f 44//2 3//2 8//2 42//2
f 41//3 4//3 3//3 44//3
f 17//4 1//4 14//4 40//4
f 69//5 70//5 57//5 58//5 75//5 76//5 63//5 64//5
f 61//6 60//6 71//6 74//6 45//6 48//6
f 3//7 4//7 15//7 16//7 11//7 12//7 7//7 8//7
f 43//8 16//8 15//8 46//8
f 45//9 11//9 16//9 43//9
f 10//10 34//10 35//10 13//10
f 34//11 33//11 36//11 35//11
f 33//12 32//12 37//12 36//12
f 13//13 35//13 40//13 14//13
f 35//14 36//14 39//14 40//14
f 36//15 37//15 38//15 39//15
f 9//16 29//16 34//16 10//16
f 29//17 30//17 33//17 34//17
f 30//18 31//18 32//18 33//18
f 5//19 23//19 28//19 6//19
f 23//20 24//20 27//20 28//20
f 24//21 25//21 26//21 27//21
f 50//22 19//22 38//22 49//22
f 19//23 18//23 39//23 38//23
f 18//24 17//24 40//24 39//24
f 1//25 17//25 22//25 2//25
f 17//26 18//26 21//26 22//26
f 18//27 19//27 20//27 21//27
f 6//28 28//28 29//28 9//28
f 28//29 27//29 30//29 29//29
f 27//30 26//30 31//30 30//30
f 2//31 22//31 23//31 5//31
f 22//32 21//32 24//32 23//32
f 21//33 20//33 25//33 24//33
f 4//34 41//34 46//34 15//34
f 48//35 45//35 43//35 52//35
f 52//36 43//36 46//36 49//36
f 26//37 67//37 66//37 59//37 62//37 31//37
f 50//38 41//38 44//38 47//38
f 80//39 89//39 75//39 58//39
f 47//40 44//40 42//40 51//40
f 20//41 47//41 51//41 25//41
f 86//42 77//42 57//42 70//42
f 19//38 50//38 47//38 20//38
f 51//43 42//43 55//43 54//43 65//43 68//43
f 37//44 52//44 49//44 38//44
f 32//35 48//35 52//35 37//35
f 41//45 50//45 49//45 46//45
f 82//46 87//46 69//46 64//46
f 31//47 62//47 61//47 48//47 32//47
f 92//48 83//48 63//48 76//48
f 53//49 54//49 55//49 56//49
f 78//50 54//50 53//50 79//50
f 42//51 8//51 7//51 56//51 55//51
f 59//52 60//52 61//52 62//52
f 82//53 64//53 63//53 83//53
f 74//54 73//54 12//54 11//54 45//54
f 65//55 66//55 67//55 68//55
f 86//56 70//56 69//56 87//56
f 25//57 51//57 68//57 67//57 26//57
f 71//58 72//58 73//58 74//58
f 90//59 72//59 71//59 91//59
f 53//60 56//60 7//60 12//60 73//60 72//60
f 75//61 89//61 92//61 76//61
f 89//62 90//62 91//62 92//62
f 65//63 85//63 88//63 66//63
f 85//64 86//64 87//64 88//64
f 59//65 81//65 84//65 60//65
f 81//66 82//66 83//66 84//66
f 57//67 77//67 80//67 58//67
f 77//68 78//68 79//68 80//68
f 71//69 60//69 84//69 91//69
f 91//70 84//70 83//70 92//70
f 59//71 66//71 88//71 81//71
f 81//72 88//72 87//72 82//72
f 65//73 54//73 78//73 85//73
f 85//74 78//74 77//74 86//74
f 53//75 72//75 90//75 79//75
f 79//76 90//76 89//76 80//76
