# Blender v2.79 (sub 0) OBJ File: '1.blend'
# www.blender.org
mtllib building.mtl
o Cube_Cube.003
v 1.513384 0.077080 -3.360334
v 1.513384 2.298557 -3.360334
v 1.513384 0.077080 -0.254108
v 1.513384 2.298557 -0.254108
v -1.513384 0.077080 -3.360334
v -1.513384 2.298557 -3.360334
v -1.513384 0.077080 -0.254108
v -1.513384 2.298557 -0.254108
v 0.000000 0.077080 -0.254108
v 0.000000 2.958338 -0.254108
v 0.000000 0.077080 -3.360334
v 0.000000 2.958338 -3.360334
vn 1.0000 0.0000 0.0000
vn 0.0000 0.0000 1.0000
vn -1.0000 0.0000 0.0000
vn 0.0000 0.0000 -1.0000
vn 0.0000 -1.0000 0.0000
vn 0.3996 0.9167 0.0000
vn -0.3996 0.9167 0.0000
usemtl None
s off
f 1//1 2//1 4//1 3//1
f 9//2 10//2 8//2 7//2
f 7//3 8//3 6//3 5//3
f 11//4 12//4 2//4 1//4
f 9//5 7//5 5//5 11//5
f 10//6 4//6 2//6 12//6
f 8//7 10//7 12//7 6//7
f 3//5 9//5 11//5 1//5
f 5//4 6//4 12//4 11//4
f 3//2 4//2 10//2 9//2
