# Blender v2.79 (sub 0) OBJ File: '1.blend'
# www.blender.org
mtllib chair.mtl
o Cube.004_Cube.007
v -1.551272 0.317356 4.039357
v -1.551272 0.433280 4.039357
v -1.551272 0.317356 1.261593
v -1.551272 0.433280 1.261593
v -1.035171 0.836571 3.979275
v -1.095225 0.930531 3.979521
v -1.055318 0.830684 1.307281
v -1.115373 0.924644 1.307527
v -1.040880 0.401200 1.261562
v -1.100727 0.324692 1.261593
v -1.157173 0.425945 1.261593
v -1.116093 0.489411 1.261655
v -1.100728 0.324692 4.039356
v -1.029539 0.407930 4.039294
v -1.104752 0.496142 4.039387
v -1.157173 0.425945 4.039356
v -1.467071 0.036716 3.976351
v -1.467071 0.321857 3.976351
v -1.467071 0.321857 1.395854
v -1.467071 0.036716 1.395854
v -1.472290 0.321857 1.394887
v -1.472290 0.036716 1.394887
v -1.477309 0.321857 1.392023
v -1.477309 0.036716 1.392023
v -1.481934 0.321857 1.387371
v -1.481934 0.036716 1.387371
v -1.485987 0.321857 1.381112
v -1.485987 0.036716 1.381112
v -1.489314 0.321857 1.373484
v -1.489314 0.036716 1.373484
v -1.491786 0.321857 1.364782
v -1.491786 0.036716 1.364782
v -1.493309 0.321857 1.355340
v -1.493309 0.036716 1.355340
v -1.493823 0.321857 1.345520
v -1.493823 0.036716 1.345520
v -1.493309 0.321857 1.335701
v -1.493309 0.036716 1.335701
v -1.491786 0.321857 1.326258
v -1.491786 0.036716 1.326258
v -1.489314 0.321857 1.317556
v -1.489314 0.036716 1.317556
v -1.485987 0.321857 1.309929
v -1.485987 0.036716 1.309929
v -1.481934 0.321857 1.303669
v -1.481934 0.036716 1.303669
v -1.477309 0.321857 1.299018
v -1.477309 0.036716 1.299018
v -1.472290 0.321857 1.296154
v -1.472290 0.036716 1.296154
v -1.467071 0.321857 1.295186
v -1.467071 0.036716 1.295186
v -1.461852 0.321857 1.296154
v -1.461852 0.036716 1.296154
v -1.456834 0.321857 1.299018
v -1.456834 0.036716 1.299018
v -1.452209 0.321857 1.303669
v -1.452209 0.036716 1.303669
v -1.448155 0.321857 1.309929
v -1.448155 0.036716 1.309929
v -1.444828 0.321857 1.317556
v -1.444828 0.036716 1.317556
v -1.442356 0.321857 1.326258
v -1.442356 0.036716 1.326258
v -1.440834 0.321857 1.335701
v -1.440834 0.036716 1.335701
v -1.440320 0.321857 1.345520
v -1.440320 0.036716 1.345520
v -1.440834 0.321857 1.355340
v -1.440834 0.036716 1.355340
v -1.442356 0.321857 1.364782
v -1.442356 0.036716 1.364782
v -1.444828 0.321857 1.373484
v -1.444828 0.036716 1.373484
v -1.448155 0.321857 1.381112
v -1.448155 0.036716 1.381112
v -1.452209 0.321857 1.387371
v -1.452209 0.036716 1.387371
v -1.456834 0.321857 1.392023
v -1.456834 0.036716 1.392023
v -1.461852 0.321857 1.394887
v -1.461852 0.036716 1.394887
v -1.472290 0.321857 3.975384
v -1.472290 0.036716 3.975384
v -1.477309 0.321857 3.972520
v -1.477309 0.036716 3.972520
v -1.481934 0.321857 3.967868
v -1.481934 0.036716 3.967868
v -1.485987 0.321857 3.961609
v -1.485987 0.036716 3.961609
v -1.489314 0.321857 3.953981
v -1.489314 0.036716 3.953981
v -1.491786 0.321857 3.945279
v -1.491786 0.036716 3.945279
v -1.493309 0.321857 3.935837
v -1.493309 0.036716 3.935837
v -1.493823 0.321857 3.926017
v -1.493823 0.036716 3.926017
v -1.493309 0.321857 3.916198
v -1.493309 0.036716 3.916198
v -1.491786 0.321857 3.906755
v -1.491786 0.036716 3.906755
v -1.489314 0.321857 3.898053
v -1.489314 0.036716 3.898053
v -1.485987 0.321857 3.890426
v -1.485987 0.036716 3.890426
v -1.481934 0.321857 3.884166
v -1.481934 0.036716 3.884166
v -1.477309 0.321857 3.879515
v -1.477309 0.036716 3.879515
v -1.472290 0.321857 3.876651
v -1.472290 0.036716 3.876651
v -1.467071 0.321857 3.875683
v -1.467071 0.036716 3.875683
v -1.461852 0.321857 3.876651
v -1.461852 0.036716 3.876651
v -1.456834 0.321857 3.879515
v -1.456834 0.036716 3.879515
v -1.452209 0.321857 3.884166
v -1.452209 0.036716 3.884166
v -1.448155 0.321857 3.890426
v -1.448155 0.036716 3.890426
v -1.444828 0.321857 3.898053
v -1.444828 0.036716 3.898053
v -1.442356 0.321857 3.906755
v -1.442356 0.036716 3.906755
v -1.440834 0.321857 3.916198
v -1.440834 0.036716 3.916198
v -1.440320 0.321857 3.926017
v -1.440320 0.036716 3.926017
v -1.440834 0.321857 3.935837
v -1.440834 0.036716 3.935837
v -1.442356 0.321857 3.945279
v -1.442356 0.036716 3.945279
v -1.444828 0.321857 3.953981
v -1.444828 0.036716 3.953981
v -1.448155 0.321857 3.961609
v -1.448155 0.036716 3.961609
v -1.452209 0.321857 3.967868
v -1.452209 0.036716 3.967868
v -1.456834 0.321857 3.972520
v -1.456834 0.036716 3.972520
v -1.461852 0.321857 3.975384
v -1.461852 0.036716 3.975384
v -1.117173 0.036716 3.976351
v -1.117173 0.321857 3.976351
v -1.122392 0.321857 3.975384
v -1.122392 0.036716 3.975384
v -1.127411 0.321857 3.972520
v -1.127411 0.036716 3.972520
v -1.132036 0.321857 3.967868
v -1.132036 0.036716 3.967868
v -1.136089 0.321857 3.961609
v -1.136089 0.036716 3.961609
v -1.139416 0.321857 3.953981
v -1.139416 0.036716 3.953981
v -1.141888 0.321857 3.945279
v -1.141888 0.036716 3.945279
v -1.143411 0.321857 3.935837
v -1.143411 0.036716 3.935837
v -1.143925 0.321857 3.926017
v -1.143925 0.036716 3.926017
v -1.143411 0.321857 3.916198
v -1.143411 0.036716 3.916198
v -1.141888 0.321857 3.906755
v -1.141888 0.036716 3.906755
v -1.139416 0.321857 3.898053
v -1.139416 0.036716 3.898053
v -1.136089 0.321857 3.890426
v -1.136089 0.036716 3.890426
v -1.132036 0.321857 3.884166
v -1.132036 0.036716 3.884166
v -1.127411 0.321857 3.879515
v -1.127411 0.036716 3.879515
v -1.122392 0.321857 3.876651
v -1.122392 0.036716 3.876651
v -1.117173 0.321857 3.875683
v -1.117173 0.036716 3.875683
v -1.111954 0.321857 3.876651
v -1.111954 0.036716 3.876651
v -1.106936 0.321857 3.879515
v -1.106936 0.036716 3.879515
v -1.102311 0.321857 3.884166
v -1.102311 0.036716 3.884166
v -1.098257 0.321857 3.890426
v -1.098257 0.036716 3.890426
v -1.094930 0.321857 3.898053
v -1.094930 0.036716 3.898053
v -1.092458 0.321857 3.906755
v -1.092458 0.036716 3.906755
v -1.090936 0.321857 3.916198
v -1.090936 0.036716 3.916198
v -1.090422 0.321857 3.926017
v -1.090422 0.036716 3.926017
v -1.090936 0.321857 3.935837
v -1.090936 0.036716 3.935837
v -1.092458 0.321857 3.945279
v -1.092458 0.036716 3.945279
v -1.094930 0.321857 3.953981
v -1.094930 0.036716 3.953981
v -1.098257 0.321857 3.961609
v -1.098257 0.036716 3.961609
v -1.102311 0.321857 3.967868
v -1.102311 0.036716 3.967868
v -1.106936 0.321857 3.972520
v -1.106936 0.036716 3.972520
v -1.111954 0.321857 3.975384
v -1.111954 0.036716 3.975384
v -1.117173 0.036716 1.406789
v -1.117173 0.321857 1.406789
v -1.122392 0.321857 1.405821
v -1.122392 0.036716 1.405821
v -1.127411 0.321857 1.402957
v -1.127411 0.036716 1.402957
v -1.132036 0.321857 1.398306
v -1.132036 0.036716 1.398306
v -1.136089 0.321857 1.392046
v -1.136089 0.036716 1.392046
v -1.139416 0.321857 1.384419
v -1.139416 0.036716 1.384419
v -1.141888 0.321857 1.375717
v -1.141888 0.036716 1.375717
v -1.143411 0.321857 1.366274
v -1.143411 0.036716 1.366274
v -1.143925 0.321857 1.356455
v -1.143925 0.036716 1.356455
v -1.143411 0.321857 1.346635
v -1.143411 0.036716 1.346635
v -1.141888 0.321857 1.337193
v -1.141888 0.036716 1.337193
v -1.139416 0.321857 1.328491
v -1.139416 0.036716 1.328491
v -1.136089 0.321857 1.320863
v -1.136089 0.036716 1.320863
v -1.132036 0.321857 1.314604
v -1.132036 0.036716 1.314604
v -1.127411 0.321857 1.309952
v -1.127411 0.036716 1.309952
v -1.122392 0.321857 1.307088
v -1.122392 0.036716 1.307088
v -1.117173 0.321857 1.306121
v -1.117173 0.036716 1.306121
v -1.111954 0.321857 1.307088
v -1.111954 0.036716 1.307088
v -1.106936 0.321857 1.309952
v -1.106936 0.036716 1.309952
v -1.102311 0.321857 1.314604
v -1.102311 0.036716 1.314604
v -1.098257 0.321857 1.320863
v -1.098257 0.036716 1.320863
v -1.094930 0.321857 1.328491
v -1.094930 0.036716 1.328491
v -1.092458 0.321857 1.337193
v -1.092458 0.036716 1.337193
v -1.090936 0.321857 1.346635
v -1.090936 0.036716 1.346635
v -1.090422 0.321857 1.356455
v -1.090422 0.036716 1.356455
v -1.090936 0.321857 1.366274
v -1.090936 0.036716 1.366274
v -1.092458 0.321857 1.375717
v -1.092458 0.036716 1.375717
v -1.094930 0.321857 1.384419
v -1.094930 0.036716 1.384419
v -1.098257 0.321857 1.392046
v -1.098257 0.036716 1.392046
v -1.102311 0.321857 1.398306
v -1.102311 0.036716 1.398306
v -1.106936 0.321857 1.402957
v -1.106936 0.036716 1.402957
v -1.111954 0.321857 1.405821
v -1.111954 0.036716 1.405821
vn -1.0000 0.0000 0.0000
vn 0.1409 0.1065 -0.9843
vn 0.8426 0.5385 -0.0075
vn 0.0000 0.0000 1.0000
vn 0.9997 0.0233 -0.0058
vn 0.0186 0.9998 0.0000
vn -0.9999 0.0119 0.0057
vn -0.8194 0.5732 0.0010
vn 0.0163 -0.9999 -0.0000
vn 0.7732 -0.6342 -0.0008
vn 0.1835 0.1344 0.9738
vn 0.0005 -0.0002 1.0000
vn 0.0000 0.0000 -1.0000
vn -0.0002 0.0004 -1.0000
vn 0.8394 0.0000 -0.5436
vn 0.0000 1.0000 0.0000
vn 0.1822 0.0000 -0.9833
vn 0.0000 -1.0000 0.0000
vn -0.7091 0.0000 -0.7051
vn 0.4957 0.0000 -0.8685
vn 0.9619 0.0000 -0.2733
vn -0.8394 0.0000 -0.5436
vn 0.7091 0.0000 -0.7051
vn 0.9873 0.0000 -0.1592
vn -0.9166 0.0000 -0.3998
vn 0.9986 0.0000 -0.0523
vn -0.9619 0.0000 -0.2733
vn 0.9166 0.0000 -0.3998
vn 0.9986 0.0000 0.0523
vn -0.9872 0.0000 -0.1592
vn 0.9873 0.0000 0.1592
vn -0.9986 0.0000 -0.0523
vn 0.9619 0.0000 0.2733
vn -0.9986 0.0000 0.0523
vn 0.9166 0.0000 0.3998
vn -0.9872 0.0000 0.1592
vn 0.8393 0.0000 0.5436
vn -0.9619 0.0000 0.2733
vn 0.7091 0.0000 0.7051
vn -0.9166 0.0000 0.3998
vn 0.4957 0.0000 0.8685
vn -0.8393 0.0000 0.5436
vn 0.1823 0.0000 0.9833
vn -0.7091 0.0000 0.7051
vn 0.8394 0.0000 0.5436
vn -0.1823 0.0000 0.9833
vn -0.4957 0.0000 0.8685
vn 0.1822 0.0000 0.9833
vn -0.1822 0.0000 0.9833
vn -0.8394 0.0000 0.5436
vn 0.9619 0.0000 0.2732
vn -0.1823 0.0000 -0.9832
vn 0.4956 0.0000 -0.8685
vn 0.1823 0.0000 -0.9832
vn -0.4957 0.0000 -0.8685
vn -0.4956 0.0000 -0.8685
vn -0.1822 0.0000 -0.9833
usemtl None
s off
f 1//1 2//1 4//1 3//1
f 9//2 12//2 8//2 7//2
f 7//3 8//3 6//3 5//3
f 13//4 16//4 2//4 1//4
f 9//5 7//5 5//5 14//5
f 11//6 4//6 2//6 16//6
f 8//7 12//7 15//7 6//7
f 12//8 11//8 16//8 15//8
f 3//9 10//9 13//9 1//9
f 10//10 9//10 14//10 13//10
f 5//11 6//11 15//11 14//11
f 14//12 15//12 16//12 13//12
f 3//13 4//13 11//13 10//13
f 10//14 11//14 12//14 9//14
f 151//15 152//15 154//15 153//15
f 84//16 17//16 144//16 142//16 140//16 138//16 136//16 134//16 132//16 130//16 128//16 126//16 124//16 122//16 120//16 118//16 116//16 114//16 112//16 110//16 108//16 106//16 104//16 102//16 100//16 98//16 96//16 94//16 92//16 90//16 88//16 86//16
f 19//17 20//17 22//17 21//17
f 146//18 147//18 149//18 151//18 153//18 155//18 157//18 159//18 161//18 163//18 165//18 167//18 169//18 171//18 173//18 175//18 177//18 179//18 181//18 183//18 185//18 187//18 189//18 191//18 193//18 195//18 197//18 199//18 201//18 203//18 205//18 207//18
f 139//19 140//19 142//19 141//19
f 21//20 22//20 24//20 23//20
f 155//21 156//21 158//21 157//21
f 137//22 138//22 140//22 139//22
f 23//23 24//23 26//23 25//23
f 157//24 158//24 160//24 159//24
f 135//25 136//25 138//25 137//25
f 25//15 26//15 28//15 27//15
f 159//26 160//26 162//26 161//26
f 133//27 134//27 136//27 135//27
f 27//28 28//28 30//28 29//28
f 161//29 162//29 164//29 163//29
f 131//30 132//30 134//30 133//30
f 29//21 30//21 32//21 31//21
f 163//31 164//31 166//31 165//31
f 129//32 130//32 132//32 131//32
f 31//24 32//24 34//24 33//24
f 165//33 166//33 168//33 167//33
f 127//34 128//34 130//34 129//34
f 33//26 34//26 36//26 35//26
f 167//35 168//35 170//35 169//35
f 125//36 126//36 128//36 127//36
f 35//29 36//29 38//29 37//29
f 169//37 170//37 172//37 171//37
f 123//38 124//38 126//38 125//38
f 37//31 38//31 40//31 39//31
f 171//39 172//39 174//39 173//39
f 121//40 122//40 124//40 123//40
f 39//33 40//33 42//33 41//33
f 173//41 174//41 176//41 175//41
f 119//42 120//42 122//42 121//42
f 41//35 42//35 44//35 43//35
f 175//43 176//43 178//43 177//43
f 117//44 118//44 120//44 119//44
f 43//45 44//45 46//45 45//45
f 177//46 178//46 180//46 179//46
f 115//47 116//47 118//47 117//47
f 45//39 46//39 48//39 47//39
f 179//47 180//47 182//47 181//47
f 113//46 114//46 116//46 115//46
f 47//41 48//41 50//41 49//41
f 181//44 182//44 184//44 183//44
f 111//43 112//43 114//43 113//43
f 49//48 50//48 52//48 51//48
f 183//42 184//42 186//42 185//42
f 109//41 110//41 112//41 111//41
f 51//49 52//49 54//49 53//49
f 185//40 186//40 188//40 187//40
f 107//39 108//39 110//39 109//39
f 53//47 54//47 56//47 55//47
f 187//38 188//38 190//38 189//38
f 105//37 106//37 108//37 107//37
f 55//44 56//44 58//44 57//44
f 189//36 190//36 192//36 191//36
f 103//35 104//35 106//35 105//35
f 57//50 58//50 60//50 59//50
f 191//34 192//34 194//34 193//34
f 101//51 102//51 104//51 103//51
f 59//40 60//40 62//40 61//40
f 193//32 194//32 196//32 195//32
f 99//31 100//31 102//31 101//31
f 61//38 62//38 64//38 63//38
f 195//30 196//30 198//30 197//30
f 97//29 98//29 100//29 99//29
f 63//36 64//36 66//36 65//36
f 197//27 198//27 200//27 199//27
f 95//26 96//26 98//26 97//26
f 65//34 66//34 68//34 67//34
f 199//25 200//25 202//25 201//25
f 93//24 94//24 96//24 95//24
f 67//32 68//32 70//32 69//32
f 201//22 202//22 204//22 203//22
f 91//21 92//21 94//21 93//21
f 69//30 70//30 72//30 71//30
f 203//19 204//19 206//19 205//19
f 89//28 90//28 92//28 91//28
f 71//27 72//27 74//27 73//27
f 148//16 145//16 208//16 206//16 204//16 202//16 200//16 198//16 196//16 194//16 192//16 190//16 188//16 186//16 184//16 182//16 180//16 178//16 176//16 174//16 172//16 170//16 168//16 166//16 164//16 162//16 160//16 158//16 156//16 154//16 152//16 150//16
f 87//15 88//15 90//15 89//15
f 73//25 74//25 76//25 75//25
f 18//18 83//18 85//18 87//18 89//18 91//18 93//18 95//18 97//18 99//18 101//18 103//18 105//18 107//18 109//18 111//18 113//18 115//18 117//18 119//18 121//18 123//18 125//18 127//18 129//18 131//18 133//18 135//18 137//18 139//18 141//18 143//18
f 85//23 86//23 88//23 87//23
f 75//22 76//22 78//22 77//22
f 143//52 144//52 17//52 18//52
f 83//53 84//53 86//53 85//53
f 77//19 78//19 80//19 79//19
f 22//16 20//16 82//16 80//16 78//16 76//16 74//16 72//16 70//16 68//16 66//16 64//16 62//16 60//16 58//16 56//16 54//16 52//16 50//16 48//16 46//16 44//16 42//16 40//16 38//16 36//16 34//16 32//16 30//16 28//16 26//16 24//16
f 18//54 17//54 84//54 83//54
f 79//55 80//55 82//55 81//55
f 153//28 154//28 156//28 155//28
f 141//56 142//56 144//56 143//56
f 81//57 82//57 20//57 19//57
f 19//18 21//18 23//18 25//18 27//18 29//18 31//18 33//18 35//18 37//18 39//18 41//18 43//18 45//18 47//18 49//18 51//18 53//18 55//18 57//18 59//18 61//18 63//18 65//18 67//18 69//18 71//18 73//18 75//18 77//18 79//18 81//18
f 149//23 150//23 152//23 151//23
f 207//52 208//52 145//52 146//52
f 147//53 148//53 150//53 149//53
f 146//54 145//54 148//54 147//54
f 205//56 206//56 208//56 207//56
f 215//15 216//15 218//15 217//15
f 210//18 211//18 213//18 215//18 217//18 219//18 221//18 223//18 225//18 227//18 229//18 231//18 233//18 235//18 237//18 239//18 241//18 243//18 245//18 247//18 249//18 251//18 253//18 255//18 257//18 259//18 261//18 263//18 265//18 267//18 269//18 271//18
f 219//21 220//21 222//21 221//21
f 221//24 222//24 224//24 223//24
f 223//26 224//26 226//26 225//26
f 225//29 226//29 228//29 227//29
f 227//31 228//31 230//31 229//31
f 229//33 230//33 232//33 231//33
f 231//35 232//35 234//35 233//35
f 233//45 234//45 236//45 235//45
f 235//39 236//39 238//39 237//39
f 237//41 238//41 240//41 239//41
f 239//48 240//48 242//48 241//48
f 241//49 242//49 244//49 243//49
f 243//47 244//47 246//47 245//47
f 245//44 246//44 248//44 247//44
f 247//50 248//50 250//50 249//50
f 249//40 250//40 252//40 251//40
f 251//38 252//38 254//38 253//38
f 253//36 254//36 256//36 255//36
f 255//34 256//34 258//34 257//34
f 257//32 258//32 260//32 259//32
f 259//30 260//30 262//30 261//30
f 261//27 262//27 264//27 263//27
f 263//25 264//25 266//25 265//25
f 265//22 266//22 268//22 267//22
f 267//19 268//19 270//19 269//19
f 212//16 209//16 272//16 270//16 268//16 266//16 264//16 262//16 260//16 258//16 256//16 254//16 252//16 250//16 248//16 246//16 244//16 242//16 240//16 238//16 236//16 234//16 232//16 230//16 228//16 226//16 224//16 222//16 220//16 218//16 216//16 214//16
f 217//28 218//28 220//28 219//28
f 213//23 214//23 216//23 215//23
f 271//57 272//57 209//57 210//57
f 211//20 212//20 214//20 213//20
f 210//17 209//17 212//17 211//17
f 269//55 270//55 272//55 271//55
