# Blender v2.79 (sub 0) OBJ File: '1.blend'
# www.blender.org
mtllib pips.mtl
o Cylinder.001
v -0.990762 0.010390 5.950697
v -0.990762 2.220669 5.950697
v -0.967962 0.010390 5.952942
v -0.967962 2.220669 5.952942
v -0.946039 0.010390 5.959593
v -0.946039 2.220669 5.959593
v -0.925834 0.010390 5.970393
v -0.925834 2.220669 5.970393
v -0.908124 0.010390 5.984927
v -0.908124 2.220669 5.984927
v -0.893590 0.010390 6.002636
v -0.893590 2.220669 6.002636
v -0.882790 0.010390 6.022841
v -0.882790 2.220669 6.022841
v -0.876140 0.010390 6.044765
v -0.876140 2.220669 6.044765
v -0.873894 0.010390 6.067565
v -0.873894 2.220669 6.067565
v -0.876140 0.010390 6.090365
v -0.876140 2.220669 6.090365
v -0.882790 0.010390 6.112288
v -0.882790 2.220669 6.112288
v -0.893590 0.010390 6.132493
v -0.893590 2.220669 6.132493
v -0.908124 0.010390 6.150203
v -0.908124 2.220669 6.150203
v -0.925834 0.010390 6.164737
v -0.925834 2.220669 6.164737
v -0.946039 0.010390 6.175537
v -0.946039 2.220669 6.175537
v -0.967962 0.010390 6.182188
v -0.967962 2.220669 6.182188
v -0.990762 0.010390 6.184433
v -0.990762 2.220669 6.184433
v -1.013562 0.010390 6.182188
v -1.013562 2.220669 6.182188
v -1.035486 0.010390 6.175537
v -1.035486 2.220669 6.175537
v -1.055691 0.010390 6.164737
v -1.055691 2.220669 6.164737
v -1.073400 0.010390 6.150203
v -1.073400 2.220669 6.150203
v -1.087935 0.010390 6.132493
v -1.087935 2.220669 6.132493
v -1.098734 0.010390 6.112288
v -1.098734 2.220669 6.112288
v -1.105385 0.010390 6.090365
v -1.105385 2.220669 6.090365
v -1.107630 0.010390 6.067565
v -1.107630 2.220669 6.067565
v -1.105385 0.010390 6.044765
v -1.105385 2.220669 6.044765
v -1.098734 0.010390 6.022841
v -1.098734 2.220669 6.022841
v -1.087934 0.010390 6.002636
v -1.087934 2.220669 6.002636
v -1.073400 0.010390 5.984927
v -1.073400 2.220669 5.984927
v -1.055691 0.010390 5.970393
v -1.055691 2.220669 5.970393
v -1.035486 0.010390 5.959593
v -1.035486 2.220669 5.959593
v -1.013562 0.010390 5.952942
v -1.013562 2.220669 5.952942
vn 0.0980 0.0000 -0.9952
vn 0.2903 0.0000 -0.9569
vn 0.4714 0.0000 -0.8819
vn 0.6344 0.0000 -0.7730
vn 0.7730 0.0000 -0.6344
vn 0.8819 0.0000 -0.4714
vn 0.9569 0.0000 -0.2903
vn 0.9952 0.0000 -0.0980
vn 0.9952 0.0000 0.0980
vn 0.9569 0.0000 0.2903
vn 0.8819 0.0000 0.4714
vn 0.7730 0.0000 0.6344
vn 0.6344 0.0000 0.7730
vn 0.4714 0.0000 0.8819
vn 0.2903 0.0000 0.9569
vn 0.0980 0.0000 0.9952
vn -0.0980 0.0000 0.9952
vn -0.2903 0.0000 0.9569
vn -0.4714 0.0000 0.8819
vn -0.6344 0.0000 0.7730
vn -0.7730 0.0000 0.6344
vn -0.8819 0.0000 0.4714
vn -0.9569 0.0000 0.2903
vn -0.9952 0.0000 0.0980
vn -0.9952 0.0000 -0.0980
vn -0.9569 0.0000 -0.2903
vn -0.8819 0.0000 -0.4714
vn -0.7730 0.0000 -0.6344
vn -0.6344 0.0000 -0.7730
vn -0.4714 0.0000 -0.8819
vn 0.0000 1.0000 0.0000
vn -0.2903 0.0000 -0.9569
vn -0.0980 0.0000 -0.9952
vn 0.0000 -1.0000 0.0000
usemtl None
s off
f 1//1 2//1 4//1 3//1
f 3//2 4//2 6//2 5//2
f 5//3 6//3 8//3 7//3
f 7//4 8//4 10//4 9//4
f 9//5 10//5 12//5 11//5
f 11//6 12//6 14//6 13//6
f 13//7 14//7 16//7 15//7
f 15//8 16//8 18//8 17//8
f 17//9 18//9 20//9 19//9
f 19//10 20//10 22//10 21//10
f 21//11 22//11 24//11 23//11
f 23//12 24//12 26//12 25//12
f 25//13 26//13 28//13 27//13
f 27//14 28//14 30//14 29//14
f 29//15 30//15 32//15 31//15
f 31//16 32//16 34//16 33//16
f 33//17 34//17 36//17 35//17
f 35//18 36//18 38//18 37//18
f 37//19 38//19 40//19 39//19
f 39//20 40//20 42//20 41//20
f 41//21 42//21 44//21 43//21
f 43//22 44//22 46//22 45//22
f 45//23 46//23 48//23 47//23
f 47//24 48//24 50//24 49//24
f 49//25 50//25 52//25 51//25
f 51//26 52//26 54//26 53//26
f 53//27 54//27 56//27 55//27
f 55//28 56//28 58//28 57//28
f 57//29 58//29 60//29 59//29
f 59//30 60//30 62//30 61//30
f 4//31 2//31 64//31 62//31 60//31 58//31 56//31 54//31 52//31 50//31 48//31 46//31 44//31 42//31 40//31 38//31 36//31 34//31 32//31 30//31 28//31 26//31 24//31 22//31 20//31 18//31 16//31 14//31 12//31 10//31 8//31 6//31
f 61//32 62//32 64//32 63//32
f 63//33 64//33 2//33 1//33
f 1//34 3//34 5//34 7//34 9//34 11//34 13//34 15//34 17//34 19//34 21//34 23//34 25//34 27//34 29//34 31//34 33//34 35//34 37//34 39//34 41//34 43//34 45//34 47//34 49//34 51//34 53//34 55//34 57//34 59//34 61//34 63//34
o Cylinder
v 0.968217 0.010390 5.950697
v 0.968217 2.220669 5.950697
v 0.991017 0.010390 5.952942
v 0.991017 2.220669 5.952942
v 1.012941 0.010390 5.959593
v 1.012941 2.220669 5.959593
v 1.033146 0.010390 5.970393
v 1.033146 2.220669 5.970393
v 1.050856 0.010390 5.984927
v 1.050856 2.220669 5.984927
v 1.065390 0.010390 6.002636
v 1.065390 2.220669 6.002636
v 1.076189 0.010390 6.022841
v 1.076189 2.220669 6.022841
v 1.082840 0.010390 6.044765
v 1.082840 2.220669 6.044765
v 1.085085 0.010390 6.067565
v 1.085085 2.220669 6.067565
v 1.082840 0.010390 6.090365
v 1.082840 2.220669 6.090365
v 1.076189 0.010390 6.112288
v 1.076189 2.220669 6.112288
v 1.065390 0.010390 6.132493
v 1.065390 2.220669 6.132493
v 1.050856 0.010390 6.150203
v 1.050856 2.220669 6.150203
v 1.033146 0.010390 6.164737
v 1.033146 2.220669 6.164737
v 1.012941 0.010390 6.175537
v 1.012941 2.220669 6.175537
v 0.991017 0.010390 6.182188
v 0.991017 2.220669 6.182188
v 0.968217 0.010390 6.184433
v 0.968217 2.220669 6.184433
v 0.945417 0.010390 6.182188
v 0.945417 2.220669 6.182188
v 0.923494 0.010390 6.175537
v 0.923494 2.220669 6.175537
v 0.903289 0.010390 6.164737
v 0.903289 2.220669 6.164737
v 0.885579 0.010390 6.150203
v 0.885579 2.220669 6.150203
v 0.871045 0.010390 6.132493
v 0.871045 2.220669 6.132493
v 0.860245 0.010390 6.112288
v 0.860245 2.220669 6.112288
v 0.853595 0.010390 6.090365
v 0.853595 2.220669 6.090365
v 0.851349 0.010390 6.067565
v 0.851349 2.220669 6.067565
v 0.853595 0.010390 6.044765
v 0.853595 2.220669 6.044765
v 0.860245 0.010390 6.022841
v 0.860245 2.220669 6.022841
v 0.871045 0.010390 6.002636
v 0.871045 2.220669 6.002636
v 0.885579 0.010390 5.984927
v 0.885579 2.220669 5.984927
v 0.903289 0.010390 5.970393
v 0.903289 2.220669 5.970393
v 0.923494 0.010390 5.959593
v 0.923494 2.220669 5.959593
v 0.945418 0.010390 5.952942
v 0.945418 2.220669 5.952942
vn 0.0980 0.0000 -0.9952
vn 0.2903 0.0000 -0.9569
vn 0.4714 0.0000 -0.8819
vn 0.6344 0.0000 -0.7730
vn 0.7730 0.0000 -0.6344
vn 0.8819 0.0000 -0.4714
vn 0.9569 0.0000 -0.2903
vn 0.9952 0.0000 -0.0980
vn 0.9952 0.0000 0.0980
vn 0.9569 0.0000 0.2903
vn 0.8819 0.0000 0.4714
vn 0.7730 0.0000 0.6344
vn 0.6344 0.0000 0.7730
vn 0.4714 0.0000 0.8819
vn 0.2903 0.0000 0.9569
vn 0.0980 0.0000 0.9952
vn -0.0980 0.0000 0.9952
vn -0.2903 0.0000 0.9569
vn -0.4714 0.0000 0.8819
vn -0.6344 0.0000 0.7730
vn -0.7730 0.0000 0.6344
vn -0.8819 0.0000 0.4714
vn -0.9569 0.0000 0.2903
vn -0.9952 0.0000 0.0980
vn -0.9952 0.0000 -0.0980
vn -0.9569 0.0000 -0.2903
vn -0.8819 0.0000 -0.4714
vn -0.7730 0.0000 -0.6344
vn -0.6344 0.0000 -0.7730
vn -0.4714 0.0000 -0.8819
vn 0.0000 1.0000 -0.0000
vn -0.2903 0.0000 -0.9569
vn -0.0980 0.0000 -0.9952
vn 0.0000 -1.0000 -0.0000
usemtl None
s off
f 65//35 66//35 68//35 67//35
f 67//36 68//36 70//36 69//36
f 69//37 70//37 72//37 71//37
f 71//38 72//38 74//38 73//38
f 73//39 74//39 76//39 75//39
f 75//40 76//40 78//40 77//40
f 77//41 78//41 80//41 79//41
f 79//42 80//42 82//42 81//42
f 81//43 82//43 84//43 83//43
f 83//44 84//44 86//44 85//44
f 85//45 86//45 88//45 87//45
f 87//46 88//46 90//46 89//46
f 89//47 90//47 92//47 91//47
f 91//48 92//48 94//48 93//48
f 93//49 94//49 96//49 95//49
f 95//50 96//50 98//50 97//50
f 97//51 98//51 100//51 99//51
f 99//52 100//52 102//52 101//52
f 101//53 102//53 104//53 103//53
f 103//54 104//54 106//54 105//54
f 105//55 106//55 108//55 107//55
f 107//56 108//56 110//56 109//56
f 109//57 110//57 112//57 111//57
f 111//58 112//58 114//58 113//58
f 113//59 114//59 116//59 115//59
f 115//60 116//60 118//60 117//60
f 117//61 118//61 120//61 119//61
f 119//62 120//62 122//62 121//62
f 121//63 122//63 124//63 123//63
f 123//64 124//64 126//64 125//64
f 68//65 66//65 128//65 126//65 124//65 122//65 120//65 118//65 116//65 114//65 112//65 110//65 108//65 106//65 104//65 102//65 100//65 98//65 96//65 94//65 92//65 90//65 88//65 86//65 84//65 82//65 80//65 78//65 76//65 74//65 72//65 70//65
f 125//66 126//66 128//66 127//66
f 127//67 128//67 66//67 65//67
f 65//68 67//68 69//68 71//68 73//68 75//68 77//68 79//68 81//68 83//68 85//68 87//68 89//68 91//68 93//68 95//68 97//68 99//68 101//68 103//68 105//68 107//68 109//68 111//68 113//68 115//68 117//68 119//68 121//68 123//68 125//68 127//68
