# Blender v2.79 (sub 0) OBJ File: '1.blend'
# www.blender.org
mtllib roof1.mtl
o Cube.001_Cube.004
v -2.201665 2.011555 -0.177264
v -2.201665 2.134289 -0.177264
v -2.201665 2.011555 -3.437178
v -2.201665 2.134289 -3.437178
v 2.201665 2.011555 -0.177264
v 2.201665 2.134289 -0.177264
v 2.201665 2.011555 -3.437178
v 2.201665 2.134289 -3.437178
v 0.000000 2.962868 -3.437178
v 0.000000 3.085602 -3.437178
v 0.000000 2.962868 -0.177264
v 0.000000 3.085602 -0.177264
vn -1.0000 0.0000 0.0000
vn -0.0000 0.0000 -1.0000
vn 1.0000 0.0000 0.0000
vn 0.0000 0.0000 1.0000
vn -0.3966 -0.9180 0.0000
vn -0.3966 0.9180 0.0000
vn 0.3966 0.9180 0.0000
vn 0.3966 -0.9180 0.0000
usemtl None
s off
f 1//1 2//1 4//1 3//1
f 9//2 10//2 8//2 7//2
f 7//3 8//3 6//3 5//3
f 11//4 12//4 2//4 1//4
f 9//5 7//5 5//5 11//5
f 10//6 4//6 2//6 12//6
f 8//7 10//7 12//7 6//7
f 3//8 9//8 11//8 1//8
f 5//4 6//4 12//4 11//4
f 3//2 4//2 10//2 9//2
