# Blender v2.79 (sub 0) OBJ File: '3-junction.blend'
# www.blender.org
mtllib 3junction.mtl
o Cube.002_Cube.003
v -0.513022 -0.000420 -0.720847
v -0.512812 0.199580 -0.720831
v -0.500000 -0.000420 -0.000005
v -0.499795 0.199580 0.000011
v -0.545313 -0.000420 -1.020982
v -0.545362 0.199580 -1.022939
v -0.681758 -0.000420 -1.552858
v -0.594657 -0.000420 -1.292499
v -0.595023 0.199580 -1.296904
v -0.859495 -0.000420 -1.814537
v -0.144353 0.199580 -1.426457
v -0.144216 -0.000420 -1.423829
v -0.681304 0.199580 -1.559995
v -1.143140 -0.000420 -2.098057
v -0.248217 0.199580 -1.750542
v -0.247827 -0.000420 -1.745991
v -0.857181 0.199580 -1.823894
v -1.505756 -0.000420 -2.376351
v -0.406508 0.199580 -2.058952
v -0.407620 -0.000420 -2.054181
v -1.137057 0.199580 -2.103754
v -1.856739 -0.000420 -2.592077
v -0.689980 0.199580 -2.286521
v -0.693379 -0.000420 -2.282160
v -1.494655 0.199580 -2.377744
v -0.296713 -0.000420 -2.786875
v -0.294729 0.199580 -2.784825
v -2.295745 -0.000420 -2.819215
v -1.073011 0.199580 -2.565044
v -1.081081 -0.000420 -2.565301
v -1.841091 0.199580 -2.590485
v -0.500000 -0.000420 -2.898712
v -0.496261 0.199580 -2.896019
v -1.367721 0.199580 -2.850086
v -1.379675 -0.000420 -2.855140
v -2.279139 0.199580 -2.819091
v -1.372951 -0.000420 -3.472515
v -1.362218 0.199580 -3.465840
v -3.247819 -0.000420 -3.448785
v -1.849684 0.199580 -3.143903
v -1.864825 -0.000420 -3.147477
v -2.837545 -0.000420 -3.145440
v -2.829560 0.199580 -3.145287
v -1.888143 -0.000420 -3.753361
v -1.878080 0.199580 -3.749516
v -3.542897 -0.000420 -3.758936
v -2.450444 0.199580 -3.439840
v -2.460782 -0.000420 -3.440892
v -3.249677 0.199580 -3.438577
v -2.366324 -0.000420 -3.984845
v -2.359689 0.199580 -3.983978
v -3.745264 -0.000420 -4.174124
v -2.870844 0.199580 -3.714838
v -2.873208 -0.000420 -3.720094
v -3.549662 0.199580 -3.742555
v -2.691931 -0.000420 -4.206454
v -2.689266 0.199580 -4.205400
v -3.895098 -0.000420 -4.605421
v -3.134629 0.199580 -3.993517
v -3.132808 -0.000420 -4.002506
v -3.749533 0.199580 -4.163966
v -2.827540 -0.000420 -4.485947
v -2.826588 0.199580 -4.485440
v -3.907944 -0.000420 -5.000000
v -3.273265 0.199580 -4.326488
v -3.269945 -0.000420 -4.334582
v -3.895989 0.199580 -4.602420
v -2.913458 -0.000420 -4.761787
v -2.912976 0.199580 -4.762033
v -3.401381 0.199580 -4.679199
v -3.400442 -0.000420 -4.682328
v -3.907738 0.199580 -5.000000
v -2.908293 -0.000420 -5.000000
v -2.908088 0.199580 -5.000000
v -3.408078 -0.000420 -5.000000
v -3.407872 0.199580 -5.000000
v -0.085200 0.199580 -0.720779
v -0.100310 0.199580 -1.084463
v -0.268059 -0.000731 -4.999895
v -0.268059 0.199269 -5.000000
v -0.499795 -0.000731 -4.999878
v -0.499795 0.199269 -5.000000
v 0.001757 0.199580 -2.220621
v 0.002388 0.199580 -1.822808
v 0.001027 0.199580 -1.449307
v 0.002707 -0.000420 -1.820269
v 0.002028 -0.000420 -2.219793
v 0.001232 -0.000420 -1.447684
v -0.000716 -0.000420 -2.731865
v 0.513022 -0.000420 -0.720847
v 0.512812 0.199580 -0.720831
v 0.500000 -0.000420 -0.000005
v 0.499794 0.199580 0.000011
v 0.545313 -0.000420 -1.020982
v 0.545361 0.199580 -1.022939
v 0.681758 -0.000420 -1.552858
v 0.594657 -0.000420 -1.292499
v 0.595022 0.199580 -1.296904
v 0.859495 -0.000420 -1.814537
v 0.144352 0.199580 -1.426457
v 0.144216 -0.000420 -1.423829
v 0.681304 0.199580 -1.559995
v 1.143140 -0.000420 -2.098057
v 0.248217 0.199580 -1.750542
v 0.247826 -0.000420 -1.745991
v 0.857180 0.199580 -1.823894
v 1.505755 -0.000420 -2.376351
v 0.406508 0.199580 -2.058952
v 0.407620 -0.000420 -2.054181
v 1.137056 0.199580 -2.103754
v 1.856738 -0.000420 -2.592077
v 0.689980 0.199580 -2.286521
v 0.693378 -0.000420 -2.282160
v 1.494654 0.199580 -2.377744
v 0.296713 -0.000420 -2.786875
v 0.294728 0.199580 -2.784825
v 2.295744 -0.000420 -2.819215
v 1.073011 0.199580 -2.565044
v 1.081081 -0.000420 -2.565301
v 1.841091 0.199580 -2.590485
v 0.500000 -0.000420 -2.898712
v 0.496260 0.199580 -2.896019
v 1.367720 0.199580 -2.850086
v 1.379675 -0.000420 -2.855140
v 2.279139 0.199580 -2.819091
v 1.372951 -0.000420 -3.472515
v 1.362218 0.199580 -3.465840
v 3.247818 -0.000420 -3.448785
v 1.849684 0.199580 -3.143903
v 1.864824 -0.000420 -3.147477
v 2.837544 -0.000420 -3.145440
v 2.829559 0.199580 -3.145287
v 1.888142 -0.000420 -3.753361
v 1.878079 0.199580 -3.749516
v 3.542896 -0.000420 -3.758936
v 2.450444 0.199580 -3.439840
v 2.460781 -0.000420 -3.440892
v 3.249677 0.199580 -3.438577
v 2.366323 -0.000420 -3.984845
v 2.359689 0.199580 -3.983978
v 3.745264 -0.000420 -4.174124
v 2.870844 0.199580 -3.714838
v 2.873207 -0.000420 -3.720094
v 3.549661 0.199580 -3.742555
v 2.691931 -0.000420 -4.206454
v 2.689266 0.199580 -4.205400
v 3.895097 -0.000420 -4.605421
v 3.134628 0.199580 -3.993517
v 3.132808 -0.000420 -4.002506
v 3.749532 0.199580 -4.163966
v 2.827539 -0.000420 -4.485947
v 2.826588 0.199580 -4.485440
v 3.907943 -0.000420 -5.000000
v 3.273265 0.199580 -4.326488
v 3.269944 -0.000420 -4.334582
v 3.895989 0.199580 -4.602420
v 2.913458 -0.000420 -4.761787
v 2.912976 0.199580 -4.762033
v 3.401380 0.199580 -4.679199
v 3.400442 -0.000420 -4.682328
v 3.907737 0.199580 -5.000000
v 2.908293 -0.000420 -5.000000
v 2.908088 0.199580 -5.000000
v 3.408077 -0.000420 -5.000000
v 3.407871 0.199580 -5.000000
v 0.085200 0.199580 -0.720779
v 0.100309 0.199580 -1.084463
v 0.268059 -0.000731 -4.999895
v 0.268059 0.199269 -5.000000
v 0.499794 -0.000731 -4.999878
v 0.499794 0.199269 -5.000000
v -0.000000 -0.000420 0.000046
v -0.000000 0.199580 0.000063
v -0.000000 -0.000420 -1.084935
v -0.000000 0.199580 -0.729219
v -0.001758 0.199580 -2.220621
v -0.000000 0.199580 -2.572056
v -0.000000 0.199580 -1.086015
v -0.002388 0.199580 -1.822808
v -0.000000 -0.000420 -0.554614
v -0.001027 0.199580 -1.449307
v -0.000000 -0.000420 -1.086032
v -0.000000 -0.000420 -2.573928
v -0.002708 -0.000420 -1.820269
v -0.002028 -0.000420 -2.219793
v -0.001232 -0.000420 -1.447684
v 0.000715 -0.000420 -2.731865
v -0.000000 0.199580 -2.729140
v -0.000000 -0.000731 -4.999531
v -0.000000 0.199269 -5.000000
vn -0.0001 -0.0001 1.0000
vn -0.9998 0.0010 0.0181
vn 0.0000 1.0000 -0.0000
vn -0.9943 0.0009 0.1070
vn -0.9839 0.0018 0.1786
vn 0.0000 -1.0000 0.0000
vn -0.9492 0.0093 0.3144
vn -0.8293 0.0287 0.5580
vn -0.7064 0.0414 0.7066
vn -0.5232 0.0346 0.8515
vn -0.6080 0.0402 0.7929
vn 0.5495 -0.0003 -0.8355
vn -1.0000 0.0093 0.0008
vn -0.5126 0.0309 0.8581
vn -0.4608 0.0334 0.8869
vn 0.4367 -0.0076 -0.8996
vn 0.4802 -0.0019 -0.8771
vn -0.5835 -0.0121 0.8121
vn 0.8988 -0.0064 -0.4384
vn 0.5601 -0.0090 -0.8284
vn -0.7168 -0.0616 0.6945
vn -0.8999 -0.0535 0.4327
vn 0.9998 -0.0017 0.0211
vn 0.9546 -0.0032 -0.2978
vn -0.9463 -0.0228 0.3224
vn 0.0000 0.0000 -1.0000
vn -0.9995 -0.0019 0.0310
vn 0.0000 1.0000 -0.0001
vn -0.0000 -0.0006 -1.0000
vn 0.0007 -0.0014 -1.0000
vn -0.0000 -1.0000 0.0001
vn -1.0000 0.0018 -0.0002
vn 0.0001 -0.0001 1.0000
vn 0.9998 0.0010 0.0181
vn 0.9943 0.0009 0.1070
vn 0.9839 0.0018 0.1786
vn 0.9492 0.0093 0.3144
vn 0.8293 0.0287 0.5580
vn 0.7064 0.0414 0.7066
vn 0.5232 0.0346 0.8515
vn 0.6080 0.0402 0.7929
vn -0.5495 -0.0003 -0.8355
vn 1.0000 0.0093 0.0008
vn 0.5126 0.0309 0.8581
vn 0.4608 0.0334 0.8869
vn -0.4367 -0.0076 -0.8996
vn -0.4802 -0.0019 -0.8771
vn 0.5835 -0.0121 0.8121
vn -0.8988 -0.0064 -0.4384
vn -0.5601 -0.0090 -0.8284
vn 0.7168 -0.0616 0.6945
vn 0.8999 -0.0535 0.4327
vn -0.9998 -0.0017 0.0211
vn -0.9546 -0.0032 -0.2978
vn 0.9463 -0.0228 0.3224
vn 0.9995 -0.0019 0.0310
vn -0.0007 -0.0014 -1.0000
vn 1.0000 0.0018 -0.0002
usemtl None
s off
f 172//1 173//1 4//1 3//1
f 3//2 4//2 2//2 1//2
f 77//3 78//3 6//3 2//3
f 1//4 2//4 6//4 5//4
f 6//3 78//3 11//3 9//3
f 5//5 6//5 9//5 8//5
f 78//3 178//3 85//3 11//3
f 174//6 5//6 8//6 12//6
f 16//6 7//6 10//6 20//6
f 15//3 84//3 83//3 19//3
f 9//3 11//3 15//3 13//3
f 8//7 9//7 13//7 7//7
f 11//3 85//3 84//3 15//3
f 12//6 8//6 7//6 16//6
f 17//3 19//3 23//3 21//3
f 13//3 15//3 19//3 17//3
f 7//8 13//8 17//8 10//8
f 24//6 14//6 18//6 30//6
f 10//9 17//9 21//9 14//9
f 19//3 83//3 177//3 23//3
f 20//6 10//6 14//6 24//6
f 18//10 25//10 31//10 22//10
f 25//3 29//3 34//3 31//3
f 21//3 23//3 29//3 25//3
f 14//11 21//11 25//11 18//11
f 23//3 177//3 188//3 27//3 29//3
f 33//12 32//12 37//12 38//12
f 32//6 35//6 41//6 37//6
f 29//3 27//3 33//3 34//3
f 30//6 18//6 22//6 35//6
f 26//6 30//6 35//6 32//6
f 32//13 33//13 82//13 81//13
f 40//3 38//3 45//3 47//3
f 28//14 36//14 43//14 42//14
f 31//3 34//3 40//3 36//3
f 22//15 31//15 36//15 28//15
f 34//3 33//3 38//3 40//3
f 35//6 22//6 28//6 41//6
f 45//16 44//16 50//16 51//16
f 44//6 48//6 54//6 50//6
f 41//6 28//6 42//6 48//6
f 37//6 41//6 48//6 44//6
f 38//17 37//17 44//17 45//17
f 36//3 40//3 47//3 43//3
f 54//6 39//6 46//6 60//6
f 53//3 51//3 57//3 59//3
f 43//3 47//3 53//3 49//3
f 42//18 43//18 49//18 39//18
f 47//3 45//3 51//3 53//3
f 48//6 42//6 39//6 54//6
f 57//19 56//19 62//19 63//19
f 56//6 60//6 66//6 62//6
f 50//6 54//6 60//6 56//6
f 51//20 50//20 56//20 57//20
f 49//3 53//3 59//3 55//3
f 39//21 49//21 55//21 46//21
f 66//6 52//6 58//6 71//6
f 65//3 63//3 69//3 70//3
f 55//3 59//3 65//3 61//3
f 46//22 55//22 61//22 52//22
f 59//3 57//3 63//3 65//3
f 60//6 46//6 52//6 66//6
f 69//23 68//23 73//23 74//23
f 68//6 71//6 75//6 73//6
f 62//6 66//6 71//6 68//6
f 63//24 62//24 68//24 69//24
f 61//3 65//3 70//3 67//3
f 52//25 61//25 67//25 58//25
f 64//26 72//26 76//26 75//26
f 76//26 74//26 73//26 75//26
f 67//3 70//3 76//3 72//3
f 58//27 67//27 72//27 64//27
f 70//3 69//3 74//3 76//3
f 71//6 58//6 64//6 75//6
f 89//6 183//6 24//6 30//6 26//6
f 27//28 188//28 190//28 80//28
f 88//6 182//6 174//6 12//6
f 86//6 88//6 12//6 16//6
f 183//6 87//6 20//6 24//6
f 2//3 4//3 173//3 77//3
f 87//6 86//6 16//6 20//6
f 3//6 1//6 180//6 172//6
f 180//6 1//6 5//6 174//6
f 77//3 175//3 178//3 78//3
f 77//3 173//3 175//3
f 80//29 79//29 81//29 82//29
f 190//30 189//30 79//30 80//30
f 26//31 32//31 81//31 79//31
f 33//28 27//28 80//28 82//28
f 89//31 26//31 79//31 189//31
f 188//32 190//32 189//32 89//32
f 172//33 92//33 93//33 173//33
f 92//34 90//34 91//34 93//34
f 166//3 91//3 95//3 167//3
f 90//35 94//35 95//35 91//35
f 95//3 98//3 100//3 167//3
f 94//36 97//36 98//36 95//36
f 167//3 100//3 181//3 178//3
f 174//6 101//6 97//6 94//6
f 105//6 109//6 99//6 96//6
f 104//3 108//3 176//3 179//3
f 98//3 102//3 104//3 100//3
f 97//37 96//37 102//37 98//37
f 100//3 104//3 179//3 181//3
f 101//6 105//6 96//6 97//6
f 106//3 110//3 112//3 108//3
f 102//3 106//3 108//3 104//3
f 96//38 99//38 106//38 102//38
f 113//6 119//6 107//6 103//6
f 99//39 103//39 110//39 106//39
f 108//3 112//3 177//3 176//3
f 109//6 113//6 103//6 99//6
f 107//40 111//40 120//40 114//40
f 114//3 120//3 123//3 118//3
f 110//3 114//3 118//3 112//3
f 103//41 107//41 114//41 110//41
f 112//3 118//3 116//3 188//3 177//3
f 122//42 127//42 126//42 121//42
f 121//6 126//6 130//6 124//6
f 118//3 123//3 122//3 116//3
f 119//6 124//6 111//6 107//6
f 115//6 121//6 124//6 119//6
f 121//43 170//43 171//43 122//43
f 129//3 136//3 134//3 127//3
f 117//44 131//44 132//44 125//44
f 120//3 125//3 129//3 123//3
f 111//45 117//45 125//45 120//45
f 123//3 129//3 127//3 122//3
f 124//6 130//6 117//6 111//6
f 134//46 140//46 139//46 133//46
f 133//6 139//6 143//6 137//6
f 130//6 137//6 131//6 117//6
f 126//6 133//6 137//6 130//6
f 127//47 134//47 133//47 126//47
f 125//3 132//3 136//3 129//3
f 143//6 149//6 135//6 128//6
f 142//3 148//3 146//3 140//3
f 132//3 138//3 142//3 136//3
f 131//48 128//48 138//48 132//48
f 136//3 142//3 140//3 134//3
f 137//6 143//6 128//6 131//6
f 146//49 152//49 151//49 145//49
f 145//6 151//6 155//6 149//6
f 139//6 145//6 149//6 143//6
f 140//50 146//50 145//50 139//50
f 138//3 144//3 148//3 142//3
f 128//51 135//51 144//51 138//51
f 155//6 160//6 147//6 141//6
f 154//3 159//3 158//3 152//3
f 144//3 150//3 154//3 148//3
f 135//52 141//52 150//52 144//52
f 148//3 154//3 152//3 146//3
f 149//6 155//6 141//6 135//6
f 158//53 163//53 162//53 157//53
f 157//6 162//6 164//6 160//6
f 151//6 157//6 160//6 155//6
f 152//54 158//54 157//54 151//54
f 150//3 156//3 159//3 154//3
f 141//55 147//55 156//55 150//55
f 153//26 164//26 165//26 161//26
f 165//26 164//26 162//26 163//26
f 156//3 161//3 165//3 159//3
f 147//56 153//56 161//56 156//56
f 159//3 165//3 163//3 158//3
f 160//6 164//6 153//6 147//6
f 187//6 115//6 119//6 113//6 183//6
f 116//28 169//28 190//28 188//28
f 186//6 101//6 174//6 182//6
f 184//6 105//6 101//6 186//6
f 183//6 113//6 109//6 185//6
f 91//3 166//3 173//3 93//3
f 185//6 109//6 105//6 184//6
f 92//6 172//6 180//6 90//6
f 180//6 174//6 94//6 90//6
f 166//3 167//3 178//3 175//3
f 166//3 175//3 173//3
f 169//29 171//29 170//29 168//29
f 190//57 169//57 168//57 189//57
f 115//31 168//31 170//31 121//31
f 122//28 171//28 169//28 116//28
f 187//31 189//31 168//31 115//31
f 188//58 187//58 189//58 190//58
