# Blender v2.79 (sub 0) OBJ File: '3-junction.blend'
# www.blender.org
mtllib 3junctiondir.mtl
o VisualDir_Cube
v -0.066129 -0.000420 0.000016
v -0.066129 0.309613 0.000016
v -0.068514 -0.000420 -0.811774
v -0.068514 0.309613 -0.811774
v 0.066129 -0.000420 0.000016
v 0.066129 0.309613 0.000016
v 0.060834 -0.000420 -0.812279
v 0.060834 0.309613 -0.812279
v -0.047919 -0.000420 -1.098930
v -0.047919 0.309613 -1.098930
v 0.082522 -0.000420 -1.087980
v 0.082522 0.309613 -1.087980
v 0.008147 -0.000420 -1.377097
v 0.008147 0.309613 -1.377097
v 0.139500 -0.000420 -1.353693
v 0.139500 0.309613 -1.353693
v 0.101912 -0.000420 -1.647271
v 0.101912 0.309613 -1.647271
v 0.230692 -0.000420 -1.611450
v 0.230692 0.309613 -1.611450
v 0.226234 -0.000420 -1.914608
v 0.226234 0.309613 -1.914608
v 0.350648 -0.000420 -1.864565
v 0.350648 0.309613 -1.864565
v 0.390686 -0.000420 -2.170464
v 0.390686 0.309613 -2.170464
v 0.509072 -0.000420 -2.104835
v 0.509072 0.309613 -2.104835
v 0.596309 -0.000420 -2.404740
v 0.596309 0.309613 -2.404740
v 0.706720 -0.000420 -2.323390
v 0.706720 0.309613 -2.323390
v 0.833971 -0.000420 -2.612520
v 0.833971 0.309613 -2.612520
v 0.932948 -0.000420 -2.517114
v 0.932948 0.309613 -2.517114
v 1.091170 -0.000420 -2.787558
v 1.091170 0.309613 -2.787558
v 1.175855 -0.000420 -2.681643
v 1.175855 0.309613 -2.681643
v 1.341873 -0.000420 -2.938624
v 1.341873 0.309613 -2.938624
v 1.416291 -0.000420 -2.825856
v 1.416291 0.309613 -2.825856
vn -1.0000 0.0000 0.0029
vn -0.9974 0.0000 -0.0715
vn 1.0000 0.0000 -0.0065
vn 0.0000 0.0000 1.0000
vn 0.0000 -1.0000 0.0000
vn 0.0000 1.0000 -0.0000
vn 0.9969 0.0000 0.0784
vn 0.9427 0.0000 0.3335
vn -0.9803 0.0000 -0.1976
vn 0.9778 0.0000 0.2097
vn -0.9447 0.0000 -0.3279
vn -0.8412 0.0000 -0.5407
vn -0.9067 0.0000 -0.4217
vn 0.9037 0.0000 0.4283
vn 0.7417 0.0000 0.6707
vn 0.8349 0.0000 0.5505
vn -0.7516 0.0000 -0.6597
vn 0.5608 0.0000 0.8280
vn -0.6582 0.0000 -0.7529
vn 0.6504 0.0000 0.7596
vn -0.5626 0.0000 -0.8267
vn 0.8346 0.0000 -0.5508
vn -0.5161 0.0000 -0.8565
vn 0.5144 0.0000 0.8576
usemtl None
s off
f 1//1 2//1 4//1 3//1
f 3//2 4//2 10//2 9//2
f 7//3 8//3 6//3 5//3
f 5//4 6//4 2//4 1//4
f 3//5 7//5 5//5 1//5
f 8//6 4//6 2//6 6//6
f 10//6 12//6 16//6 14//6
f 8//7 7//7 11//7 12//7
f 7//5 3//5 9//5 11//5
f 4//6 8//6 12//6 10//6
f 16//8 15//8 19//8 20//8
f 9//9 10//9 14//9 13//9
f 12//10 11//10 15//10 16//10
f 11//5 9//5 13//5 15//5
f 18//6 20//6 24//6 22//6
f 15//5 13//5 17//5 19//5
f 14//6 16//6 20//6 18//6
f 13//11 14//11 18//11 17//11
f 21//12 22//12 26//12 25//12
f 17//13 18//13 22//13 21//13
f 20//14 19//14 23//14 24//14
f 19//5 17//5 21//5 23//5
f 28//15 27//15 31//15 32//15
f 24//16 23//16 27//16 28//16
f 23//5 21//5 25//5 27//5
f 22//6 24//6 28//6 26//6
f 30//6 32//6 36//6 34//6
f 27//5 25//5 29//5 31//5
f 26//6 28//6 32//6 30//6
f 25//17 26//17 30//17 29//17
f 36//18 35//18 39//18 40//18
f 29//19 30//19 34//19 33//19
f 32//20 31//20 35//20 36//20
f 31//5 29//5 33//5 35//5
f 39//5 37//5 41//5 43//5
f 35//5 33//5 37//5 39//5
f 34//6 36//6 40//6 38//6
f 33//21 34//21 38//21 37//21
f 41//22 42//22 44//22 43//22
f 38//6 40//6 44//6 42//6
f 37//23 38//23 42//23 41//23
f 40//24 39//24 43//24 44//24
