# Blender v2.79 (sub 0) OBJ File: 'junction.blend'
# www.blender.org
mtllib directionvisible.mtl
o VisualDir_Cube
v -0.066129 -0.000420 0.000015
v -0.066129 0.309613 0.000015
v -0.066129 -0.000420 -0.756300
v -0.066129 0.309613 -0.756300
v 0.066129 -0.000420 0.000015
v 0.066129 0.309613 0.000015
v 0.066129 -0.000420 -0.756300
v 0.066129 0.309613 -0.756300
v -0.032708 -0.000420 -1.021630
v -0.032708 0.309613 -1.021630
v 0.099286 -0.000420 -1.013282
v 0.099286 0.309613 -1.013282
v 0.017394 -0.000420 -1.284322
v 0.017394 0.309613 -1.284322
v 0.148598 -0.000420 -1.267659
v 0.148598 0.309613 -1.267659
v 0.083977 -0.000420 -1.543327
v 0.083977 0.309613 -1.543327
v 0.213868 -0.000420 -1.518416
v 0.213868 0.309613 -1.518416
v 0.166775 -0.000420 -1.797613
v 0.166775 0.309613 -1.797613
v 0.294835 -0.000420 -1.764552
v 0.294835 0.309613 -1.764552
v 0.265459 -0.000420 -2.046165
v 0.265459 0.309613 -2.046165
v 0.391176 -0.000420 -2.005088
v 0.391176 0.309613 -2.005088
v 0.379635 -0.000420 -2.287994
v 0.379635 0.309613 -2.287994
v 0.502509 -0.000420 -2.239063
v 0.502509 0.309613 -2.239063
v 0.508847 -0.000420 -2.522133
v 0.508847 0.309613 -2.522133
v 0.628387 -0.000420 -2.465544
v 0.628387 0.309613 -2.465544
v 0.652580 -0.000420 -2.747650
v 0.652580 0.309613 -2.747650
v 0.768310 -0.000420 -2.683628
v 0.768310 0.309613 -2.683628
v 0.810261 -0.000420 -2.963645
v 0.810261 0.309613 -2.963645
v 0.921719 -0.000420 -2.892446
v 0.921719 0.309613 -2.892446
vn -1.0000 0.0000 0.0000
vn -0.9922 0.0000 -0.1250
vn 1.0000 0.0000 0.0000
vn 0.0000 0.0000 1.0000
vn 0.0000 -1.0000 0.0000
vn 0.0000 1.0000 0.0000
vn 0.9918 0.0000 0.1280
vn 0.9678 0.0000 0.2519
vn -0.9823 0.0000 -0.1873
vn 0.9817 0.0000 0.1903
vn -0.9685 0.0000 -0.2490
vn -0.9294 0.0000 -0.3690
vn -0.9509 0.0000 -0.3096
vn 0.9499 0.0000 0.3125
vn 0.9030 0.0000 0.4297
vn 0.9283 0.0000 0.3718
vn -0.9043 0.0000 -0.4269
vn 0.8417 0.0000 0.5400
vn -0.8755 0.0000 -0.4832
vn 0.8741 0.0000 0.4858
vn -0.8433 0.0000 -0.5375
vn 0.5383 0.0000 -0.8427
vn -0.8077 0.0000 -0.5896
vn 0.8059 0.0000 0.5921
usemtl None
s off
f 1//1 2//1 4//1 3//1
f 3//2 4//2 10//2 9//2
f 7//3 8//3 6//3 5//3
f 5//4 6//4 2//4 1//4
f 3//5 7//5 5//5 1//5
f 8//6 4//6 2//6 6//6
f 10//6 12//6 16//6 14//6
f 8//7 7//7 11//7 12//7
f 7//5 3//5 9//5 11//5
f 4//6 8//6 12//6 10//6
f 16//8 15//8 19//8 20//8
f 9//9 10//9 14//9 13//9
f 12//10 11//10 15//10 16//10
f 11//5 9//5 13//5 15//5
f 18//6 20//6 24//6 22//6
f 15//5 13//5 17//5 19//5
f 14//6 16//6 20//6 18//6
f 13//11 14//11 18//11 17//11
f 21//12 22//12 26//12 25//12
f 17//13 18//13 22//13 21//13
f 20//14 19//14 23//14 24//14
f 19//5 17//5 21//5 23//5
f 28//15 27//15 31//15 32//15
f 24//16 23//16 27//16 28//16
f 23//5 21//5 25//5 27//5
f 22//6 24//6 28//6 26//6
f 30//6 32//6 36//6 34//6
f 27//5 25//5 29//5 31//5
f 26//6 28//6 32//6 30//6
f 25//17 26//17 30//17 29//17
f 36//18 35//18 39//18 40//18
f 29//19 30//19 34//19 33//19
f 32//20 31//20 35//20 36//20
f 31//5 29//5 33//5 35//5
f 39//5 37//5 41//5 43//5
f 35//5 33//5 37//5 39//5
f 34//6 36//6 40//6 38//6
f 33//21 34//21 38//21 37//21
f 41//22 42//22 44//22 43//22
f 38//6 40//6 44//6 42//6
f 37//23 38//23 42//23 41//23
f 40//24 39//24 43//24 44//24
