# Blender v2.79 (sub 0) OBJ File: 'front.blend'
# www.blender.org
mtllib front.mtl
o Cube
v 1.000000 -0.136780 -4.677113
v 1.000000 -0.136780 4.677113
v -1.000000 -0.136780 4.677112
v -1.000000 -0.136780 -4.677114
v 1.000000 2.197088 -4.677111
v 0.999999 2.201546 4.684908
v -1.000000 2.201545 4.684905
v -1.000000 2.197088 -4.677113
v 0.850073 2.662765 -4.556406
v 0.850072 2.632421 4.470966
v -0.850073 2.662765 -4.556408
v -0.850073 2.632421 4.470963
v 0.742141 2.662765 -1.362947
v 0.742140 2.662765 1.362950
v -0.742140 2.662765 -1.362948
v -0.742141 2.662765 1.362949
v 0.742141 2.847749 -1.253853
v 0.742140 2.847749 1.253855
v -0.742140 2.847749 -1.253853
v -0.742141 2.847749 1.253854
v 0.945058 -0.126704 -5.152493
v -0.914741 -0.137528 -5.144768
v 1.000093 2.255366 -4.667064
v -1.006028 2.241852 -4.662927
v 0.850843 2.678354 -4.567770
v -0.847177 2.666682 -4.563938
v 0.878583 -0.136780 -4.554747
v 0.878583 -0.136780 4.261191
v -0.878583 -0.136780 -4.554749
v -0.878584 -0.136780 4.261190
v 0.878583 -0.365069 -4.554747
v 0.878583 -0.365069 4.261191
v -0.878583 -0.365069 -4.554749
v -0.878584 -0.365069 4.261190
v -1.273622 -0.129545 4.677112
v -1.273622 -0.129545 -4.677114
v -1.013762 2.194296 4.684905
v -1.014257 2.189867 -4.677113
v 1.248107 -0.130363 -4.677114
v 1.248107 -0.130363 4.677113
v 1.003804 2.190683 -4.677111
v 1.003336 2.195117 4.684908
vn 0.0000 -1.0000 0.0000
vn -0.9484 0.3172 0.0004
vn 0.0000 -0.0033 1.0000
vn -0.4589 0.8885 -0.0004
vn -0.0016 0.6959 0.7182
vn -0.1402 0.9901 0.0026
vn 0.9931 0.0005 -0.1170
vn -0.0000 0.4447 0.8957
vn 0.9484 0.3172 0.0004
vn -0.0000 0.5080 0.8614
vn -0.0000 1.0000 0.0000
vn -0.0000 1.0000 0.0098
vn 0.1402 0.9901 0.0026
vn 1.0000 0.0000 0.0000
vn -1.0000 0.0000 -0.0000
vn 0.0000 0.5080 -0.8614
vn -0.0043 0.1990 -0.9800
vn -0.0036 0.2278 -0.9737
vn 0.6060 0.0071 0.7954
vn -0.9851 -0.0015 -0.1723
vn 0.0028 -0.9999 -0.0098
vn -0.2556 -0.1471 0.9555
vn 0.0000 0.0000 -1.0000
vn -0.0000 0.0000 1.0000
vn -0.9938 0.1111 -0.0000
vn -0.0264 -0.9997 -0.0000
vn 0.9945 0.1047 0.0000
vn 0.0259 -0.9997 -0.0000
vn 0.8739 0.4861 -0.0002
usemtl Material
s off
f 1//1 2//1 28//1 27//1
f 8//2 7//2 12//2 11//2
f 6//3 2//3 40//3 42//3
f 2//3 6//3 7//3 3//3
f 7//4 8//4 38//4 37//4
f 11//5 9//5 25//5 26//5
f 11//6 12//6 16//6 15//6
f 5//7 1//7 21//7 23//7
f 7//8 6//8 10//8 12//8
f 6//9 5//9 9//9 10//9
f 16//10 14//10 18//10 20//10
f 9//11 11//11 15//11 13//11
f 12//12 10//12 14//12 16//12
f 10//13 9//13 13//13 14//13
f 17//11 19//11 20//11 18//11
f 14//14 13//14 17//14 18//14
f 15//15 16//15 20//15 19//15
f 13//16 15//16 19//16 17//16
f 23//17 21//17 22//17 24//17
f 23//18 24//18 26//18 25//18
f 9//19 5//19 23//19 25//19
f 4//20 8//20 24//20 22//20
f 1//21 4//21 22//21 21//21
f 8//22 11//22 26//22 24//22
f 27//14 28//14 32//14 31//14
f 3//1 4//1 29//1 30//1
f 2//1 3//1 30//1 28//1
f 4//1 1//1 27//1 29//1
f 31//1 32//1 34//1 33//1
f 30//15 29//15 33//15 34//15
f 29//23 27//23 31//23 33//23
f 28//24 30//24 34//24 32//24
f 35//25 37//25 38//25 36//25
f 8//23 4//23 36//23 38//23
f 4//26 3//26 35//26 36//26
f 3//3 7//3 37//3 35//3
f 39//27 41//27 42//27 40//27
f 1//23 5//23 41//23 39//23
f 2//28 1//28 39//28 40//28
f 5//29 6//29 42//29 41//29
