# Blender v2.79 (sub 0) OBJ File: 'junction.blend'
# www.blender.org
mtllib junction.mtl
o Cube.002_Cube.003
v 0.499939 -0.000420 -0.720847
v 0.499734 0.199580 -0.720831
v 0.500000 -0.000420 -0.000005
v 0.499794 0.199580 0.000011
v 0.513780 -0.000420 -1.034406
v 0.513574 0.199580 -1.034410
v 0.618334 -0.000420 -1.650809
v 0.553355 -0.000420 -1.345257
v 0.553150 0.199580 -1.345282
v 0.708175 -0.000420 -1.948514
v 0.061463 0.199580 -1.445971
v 0.061668 -0.000420 -1.445946
v 0.618132 0.199580 -1.650855
v 0.822129 -0.000420 -2.235889
v 0.136777 0.199580 -1.800863
v 0.136979 -0.000420 -1.800817
v 0.707978 0.199580 -1.948580
v 0.959245 -0.000420 -2.510538
v 0.240968 0.199580 -2.146657
v 0.241165 -0.000420 -2.146591
v 0.821938 0.199580 -2.235975
v 1.118381 -0.000420 -2.770172
v 0.373168 0.199580 -2.480469
v 0.373359 -0.000420 -2.480383
v 0.959062 0.199580 -2.510643
v 0.105669 -0.000420 -3.088285
v 0.105486 0.199580 -3.088390
v 1.298210 -0.000420 -3.012624
v 0.532274 0.199580 -2.799516
v 0.532457 -0.000420 -2.799412
v 1.118207 0.199580 -2.770294
v 0.315886 -0.000420 -3.431859
v 0.315713 0.199580 -3.431981
v 0.716960 0.199580 -3.101138
v 0.717133 -0.000420 -3.101015
v 1.298047 0.199580 -3.012764
v 0.553487 -0.000420 -3.752734
v 0.553325 0.199580 -3.752873
v 1.738575 -0.000420 -3.584915
v 0.925686 0.199580 -3.382819
v 0.925848 -0.000420 -3.382679
v 1.533624 -0.000420 -3.284355
v 1.533447 0.199580 -3.284473
v 0.715555 -0.000420 -3.922156
v 0.715379 0.199580 -3.922273
v 1.910216 -0.000420 -3.910129
v 1.124413 0.199580 -3.603373
v 1.124589 -0.000420 -3.603256
v 1.738387 0.199580 -3.585009
v 0.858523 -0.000420 -4.111548
v 0.858336 0.199580 -4.111642
v 2.046162 -0.000420 -4.255478
v 1.298361 0.199580 -3.848325
v 1.298549 -0.000420 -3.848232
v 1.910019 0.199580 -3.910197
v 0.980406 -0.000420 -4.318278
v 0.980210 0.199580 -4.318347
v 2.144527 -0.000420 -4.616167
v 1.445114 0.199580 -4.114271
v 1.445310 -0.000420 -4.114203
v 2.045960 0.199580 -4.255521
v 1.079509 -0.000420 -4.539475
v 1.079308 0.199580 -4.539518
v 2.200102 -0.000420 -5.000000
v 1.562634 0.199580 -4.397519
v 1.562836 -0.000420 -4.397477
v 2.144321 0.199580 -4.616182
v 1.154458 -0.000420 -4.772068
v 1.154253 0.199580 -4.772083
v 1.649287 0.199580 -4.694133
v 1.649493 -0.000420 -4.694118
v 2.199896 0.199580 -5.000000
v 1.200308 -0.000420 -5.000000
v 1.200103 0.199580 -5.000000
v 1.700207 -0.000420 -5.000000
v 1.700001 0.199580 -5.000000
v -0.499940 -0.000420 -0.720847
v -0.499734 0.199580 -0.720831
v -0.500000 -0.000420 -0.000005
v -0.499795 0.199580 0.000011
v -0.000000 -0.000420 0.000046
v -0.000000 0.199580 0.000063
v -0.000000 0.199580 -0.720779
v -0.513781 -0.000420 -1.034406
v -0.513575 0.199580 -1.034410
v -0.618334 -0.000420 -1.650809
v -0.000000 0.199580 -1.084940
v -0.000000 -0.000420 -1.084935
v -0.553356 -0.000420 -1.345257
v -0.553151 0.199580 -1.345282
v -0.708175 -0.000420 -1.948514
v -0.061464 0.199580 -1.445971
v -0.061668 -0.000420 -1.445946
v -0.618132 0.199580 -1.650855
v -0.822129 -0.000420 -2.235889
v -0.136777 0.199580 -1.800863
v -0.136979 -0.000420 -1.800817
v -0.707978 0.199580 -1.948580
v -0.959245 -0.000420 -2.510538
v -0.240968 0.199580 -2.146657
v -0.241165 -0.000420 -2.146591
v -0.821938 0.199580 -2.235975
v -1.118382 -0.000420 -2.770172
v -0.373168 0.199580 -2.480469
v -0.373359 -0.000420 -2.480383
v -0.959062 0.199580 -2.510643
v -0.105670 -0.000420 -3.088285
v -0.105487 0.199580 -3.088390
v -1.298210 -0.000420 -3.012624
v -0.532274 0.199580 -2.799516
v -0.532457 -0.000420 -2.799412
v -1.118208 0.199580 -2.770294
v -0.315887 -0.000420 -3.431859
v -0.315713 0.199580 -3.431981
v -0.716960 0.199580 -3.101138
v -0.717134 -0.000420 -3.101015
v -1.298047 0.199580 -3.012764
v -0.553488 -0.000420 -3.752734
v -0.553325 0.199580 -3.752873
v -1.738575 -0.000420 -3.584915
v -0.925686 0.199580 -3.382819
v -0.925849 -0.000420 -3.382679
v -1.533624 -0.000420 -3.284355
v -1.533447 0.199580 -3.284473
v -0.715555 -0.000420 -3.922156
v -0.715379 0.199580 -3.922273
v -1.910216 -0.000420 -3.910129
v -1.124413 0.199580 -3.603373
v -1.124589 -0.000420 -3.603256
v -1.738387 0.199580 -3.585009
v -0.858523 -0.000420 -4.111548
v -0.858336 0.199580 -4.111642
v -2.046163 -0.000420 -4.255478
v -1.298362 0.199580 -3.848325
v -1.298549 -0.000420 -3.848232
v -1.910019 0.199580 -3.910197
v -0.980406 -0.000420 -4.318278
v -0.980210 0.199580 -4.318347
v -2.144527 -0.000420 -4.616167
v -1.445115 0.199580 -4.114271
v -1.445311 -0.000420 -4.114203
v -2.045960 0.199580 -4.255521
v -1.079510 -0.000420 -4.539475
v -1.079308 0.199580 -4.539518
v -2.200103 -0.000420 -5.000000
v -1.562634 0.199580 -4.397519
v -1.562836 -0.000420 -4.397477
v -2.144322 0.199580 -4.616182
v -1.154459 -0.000420 -4.772068
v -1.154253 0.199580 -4.772083
v -1.649287 0.199580 -4.694133
v -1.649493 -0.000420 -4.694118
v -2.199897 0.199580 -5.000000
v -1.200308 -0.000420 -5.000000
v -1.200103 0.199580 -5.000000
v -1.700207 -0.000420 -5.000000
v -1.700001 0.199580 -5.000000
v -0.000000 0.199580 -0.842511
v -0.000000 0.199580 -2.246717
v -0.000000 0.199580 -2.681021
v -0.000000 0.199580 -1.086015
v -0.000000 0.199580 -1.841913
v -0.000000 -0.000420 -0.720796
v -0.000000 0.199580 -1.457522
v -0.000000 -0.000420 -0.837818
v -0.000000 -0.000420 -1.086031
v -0.000000 -0.000420 -2.681039
v -0.000000 -0.000420 -1.841929
v -0.000000 -0.000420 -2.246734
v -0.000000 -0.000420 -1.457539
v -0.000000 -0.000420 -0.743993
v -0.000000 -0.000420 -2.886366
v -0.000000 0.199580 -2.886836
vn 1.0000 0.0010 -0.0001
vn 0.0000 1.0000 0.0000
vn 0.9990 0.0010 0.0441
vn 0.9920 0.0010 0.1263
vn 0.0000 -1.0000 -0.0000
vn 0.9781 0.0010 0.2080
vn 0.9574 0.0010 0.2889
vn 0.9296 0.0010 0.3686
vn 0.8526 0.0011 0.5226
vn 0.8947 0.0010 0.4467
vn -0.8037 -0.0011 -0.5951
vn -0.8530 -0.0011 -0.5219
vn 0.7558 0.0011 0.6548
vn 0.8032 0.0011 0.5957
vn -0.7981 -0.0010 -0.6025
vn -0.7226 -0.0011 -0.6913
vn 0.8262 0.0011 0.5634
vn -0.9126 -0.0010 -0.4089
vn -0.8614 -0.0010 -0.5079
vn 0.8844 0.0010 0.4668
vn 0.9305 0.0010 0.3663
vn -0.9804 -0.0010 -0.1972
vn -0.9518 -0.0010 -0.3067
vn 0.9648 0.0010 0.2631
vn 0.0000 0.0000 -1.0000
vn 0.9897 0.0010 0.1433
vn -0.8860 -0.0011 -0.4637
vn 0.0001 -0.0001 1.0000
vn -1.0000 0.0010 -0.0001
vn -0.9990 0.0010 0.0441
vn 0.0000 0.0000 1.0000
vn -0.9920 0.0010 0.1263
vn -0.9781 0.0010 0.2080
vn -0.9574 0.0010 0.2889
vn -0.9296 0.0010 0.3686
vn -0.8526 0.0011 0.5226
vn -0.8947 0.0010 0.4467
vn 0.8037 -0.0011 -0.5951
vn 0.8530 -0.0011 -0.5219
vn -0.7558 0.0011 0.6548
vn -0.8032 0.0011 0.5957
vn 0.7981 -0.0010 -0.6025
vn 0.7226 -0.0011 -0.6913
vn -0.8262 0.0011 0.5634
vn 0.9126 -0.0010 -0.4089
vn 0.8614 -0.0010 -0.5079
vn -0.8844 0.0010 0.4668
vn -0.9305 0.0010 0.3663
vn 0.9804 -0.0010 -0.1972
vn 0.9518 -0.0010 -0.3067
vn -0.9648 0.0010 0.2631
vn -0.9897 0.0010 0.1433
vn 0.8860 -0.0011 -0.4637
vn -0.0001 -0.0001 1.0000
usemtl None
s off
f 3//1 1//1 2//1 4//1
f 83//2 2//2 6//2 87//2
f 1//3 5//3 6//3 2//3
f 6//2 9//2 11//2 87//2
f 5//4 8//4 9//4 6//4
f 87//2 11//2 164//2 161//2
f 88//5 12//5 8//5 5//5
f 16//5 20//5 10//5 7//5
f 15//2 19//2 159//2 162//2
f 9//2 13//2 15//2 11//2
f 8//6 7//6 13//6 9//6
f 11//2 15//2 162//2 164//2
f 12//5 16//5 7//5 8//5
f 17//2 21//2 23//2 19//2
f 13//2 17//2 19//2 15//2
f 7//7 10//7 17//7 13//7
f 24//5 30//5 18//5 14//5
f 10//8 14//8 21//8 17//8
f 19//2 23//2 160//2 159//2
f 20//5 24//5 14//5 10//5
f 18//9 22//9 31//9 25//9
f 25//2 31//2 34//2 29//2
f 21//2 25//2 29//2 23//2
f 14//10 18//10 25//10 21//10
f 23//2 29//2 27//2 173//2 160//2
f 33//11 38//11 37//11 32//11
f 32//5 37//5 41//5 35//5
f 29//2 34//2 33//2 27//2
f 30//5 35//5 22//5 18//5
f 26//5 32//5 35//5 30//5
f 27//12 33//12 32//12 26//12
f 40//2 47//2 45//2 38//2
f 28//13 42//13 43//13 36//13
f 31//2 36//2 40//2 34//2
f 22//14 28//14 36//14 31//14
f 34//2 40//2 38//2 33//2
f 35//5 41//5 28//5 22//5
f 45//15 51//15 50//15 44//15
f 44//5 50//5 54//5 48//5
f 41//5 48//5 42//5 28//5
f 37//5 44//5 48//5 41//5
f 38//16 45//16 44//16 37//16
f 36//2 43//2 47//2 40//2
f 54//5 60//5 46//5 39//5
f 53//2 59//2 57//2 51//2
f 43//2 49//2 53//2 47//2
f 42//17 39//17 49//17 43//17
f 47//2 53//2 51//2 45//2
f 48//5 54//5 39//5 42//5
f 57//18 63//18 62//18 56//18
f 56//5 62//5 66//5 60//5
f 50//5 56//5 60//5 54//5
f 51//19 57//19 56//19 50//19
f 49//2 55//2 59//2 53//2
f 39//20 46//20 55//20 49//20
f 66//5 71//5 58//5 52//5
f 65//2 70//2 69//2 63//2
f 55//2 61//2 65//2 59//2
f 46//21 52//21 61//21 55//21
f 59//2 65//2 63//2 57//2
f 60//5 66//5 52//5 46//5
f 69//22 74//22 73//22 68//22
f 68//5 73//5 75//5 71//5
f 62//5 68//5 71//5 66//5
f 63//23 69//23 68//23 62//23
f 61//2 67//2 70//2 65//2
f 52//24 58//24 67//24 61//24
f 64//25 75//25 76//25 72//25
f 76//25 75//25 73//25 74//25
f 67//2 72//2 76//2 70//2
f 58//26 64//26 72//26 67//26
f 70//2 76//2 74//2 69//2
f 71//5 75//5 64//5 58//5
f 172//5 26//5 30//5 24//5 167//5
f 173//27 27//27 26//27 172//27
f 170//5 12//5 88//5 166//5
f 165//5 88//5 5//5 1//5 171//5
f 168//5 16//5 12//5 170//5
f 167//5 24//5 20//5 169//5
f 2//2 83//2 82//2 4//2
f 169//5 20//5 16//5 168//5
f 1//5 163//5 171//5
f 3//5 81//5 163//5 1//5
f 4//28 82//28 81//28 3//28
f 79//29 80//29 78//29 77//29
f 83//2 87//2 85//2 78//2
f 77//30 78//30 85//30 84//30
f 163//31 171//31 165//31
f 85//2 87//2 92//2 90//2
f 84//32 85//32 90//32 89//32
f 87//2 161//2 164//2 92//2
f 88//5 84//5 89//5 93//5
f 97//5 86//5 91//5 101//5
f 96//2 162//2 159//2 100//2
f 90//2 92//2 96//2 94//2
f 89//33 90//33 94//33 86//33
f 92//2 164//2 162//2 96//2
f 93//5 89//5 86//5 97//5
f 98//2 100//2 104//2 102//2
f 94//2 96//2 100//2 98//2
f 86//34 94//34 98//34 91//34
f 105//5 95//5 99//5 111//5
f 91//35 98//35 102//35 95//35
f 100//2 159//2 160//2 104//2
f 101//5 91//5 95//5 105//5
f 99//36 106//36 112//36 103//36
f 106//2 110//2 115//2 112//2
f 102//2 104//2 110//2 106//2
f 95//37 102//37 106//37 99//37
f 104//2 160//2 173//2 108//2 110//2
f 114//38 113//38 118//38 119//38
f 113//5 116//5 122//5 118//5
f 110//2 108//2 114//2 115//2
f 111//5 99//5 103//5 116//5
f 107//5 111//5 116//5 113//5
f 108//39 107//39 113//39 114//39
f 121//2 119//2 126//2 128//2
f 109//40 117//40 124//40 123//40
f 112//2 115//2 121//2 117//2
f 103//41 112//41 117//41 109//41
f 115//2 114//2 119//2 121//2
f 116//5 103//5 109//5 122//5
f 126//42 125//42 131//42 132//42
f 125//5 129//5 135//5 131//5
f 122//5 109//5 123//5 129//5
f 118//5 122//5 129//5 125//5
f 119//43 118//43 125//43 126//43
f 117//2 121//2 128//2 124//2
f 135//5 120//5 127//5 141//5
f 134//2 132//2 138//2 140//2
f 124//2 128//2 134//2 130//2
f 123//44 124//44 130//44 120//44
f 128//2 126//2 132//2 134//2
f 129//5 123//5 120//5 135//5
f 138//45 137//45 143//45 144//45
f 137//5 141//5 147//5 143//5
f 131//5 135//5 141//5 137//5
f 132//46 131//46 137//46 138//46
f 130//2 134//2 140//2 136//2
f 120//47 130//47 136//47 127//47
f 147//5 133//5 139//5 152//5
f 146//2 144//2 150//2 151//2
f 136//2 140//2 146//2 142//2
f 127//48 136//48 142//48 133//48
f 140//2 138//2 144//2 146//2
f 141//5 127//5 133//5 147//5
f 150//49 149//49 154//49 155//49
f 149//5 152//5 156//5 154//5
f 143//5 147//5 152//5 149//5
f 144//50 143//50 149//50 150//50
f 142//2 146//2 151//2 148//2
f 133//51 142//51 148//51 139//51
f 145//25 153//25 157//25 156//25
f 157//25 155//25 154//25 156//25
f 148//2 151//2 157//2 153//2
f 139//52 148//52 153//52 145//52
f 151//2 150//2 155//2 157//2
f 152//5 139//5 145//5 156//5
f 172//5 167//5 105//5 111//5 107//5
f 173//53 172//53 107//53 108//53
f 170//5 166//5 88//5 93//5
f 166//31 165//31 88//31
f 165//5 171//5 77//5 84//5 88//5
f 168//5 170//5 93//5 97//5
f 83//31 158//31 161//31 87//31
f 167//5 169//5 101//5 105//5
f 78//2 80//2 82//2 83//2
f 169//5 168//5 97//5 101//5
f 77//5 171//5 163//5
f 79//5 77//5 163//5 81//5
f 80//54 79//54 81//54 82//54
