# Blender v2.79 (sub 0) OBJ File: 'switch_right.blend'
# www.blender.org
mtllib switch_right.mtl
o Cube.001_Cube.002
v -0.500000 0.000000 0.000011
v -0.500000 0.200000 0.000011
v -0.500000 0.000000 -0.293458
v -0.500000 0.200000 -0.293458
v 0.500000 0.000000 0.000011
v 0.500000 0.200000 0.000011
v 0.500000 0.000000 -0.293458
v 0.500000 0.200000 -0.293458
v -0.436074 0.000000 -0.843422
v -0.436074 0.200000 -0.843422
v 0.538854 0.000000 -0.620901
v 0.538854 0.200000 -0.620901
v -0.251371 0.000000 -1.365373
v -0.251371 0.200000 -1.365373
v 0.649598 0.000000 -0.931489
v 0.649598 0.200000 -0.931489
v 0.044845 0.000000 -1.833137
v 0.044845 0.200000 -1.833137
v 0.826676 0.000000 -1.209647
v 0.826676 0.200000 -1.209647
v 0.437722 0.000000 -2.223258
v 0.437722 0.200000 -2.223258
v 1.061211 0.000000 -1.441427
v 1.061211 0.200000 -1.441427
v 0.907558 0.000000 -2.516176
v 0.907558 0.200000 -2.516176
v 1.341442 0.000000 -1.615207
v 1.341442 0.200000 -1.615207
v 1.430796 0.000000 -2.697201
v 1.430796 0.200000 -2.697201
v 1.653317 0.000000 -1.722273
v 1.653317 0.200000 -1.722273
v 1.884038 -0.000000 -2.828330
v 1.884038 0.200000 -2.828330
v 2.058665 -0.000000 -1.843695
v 2.058665 0.200000 -1.843695
v 2.232226 -0.000000 -2.998472
v 2.232226 0.200000 -2.998472
v 2.513815 -0.000000 -2.045684
v 2.513815 0.200000 -2.045684
v 2.498384 -0.000000 -3.177215
v 2.498384 0.200000 -3.177215
v 2.946499 -0.000000 -2.276246
v 2.946499 0.200000 -2.276246
v 2.705964 -0.000000 -3.440431
v 2.705964 0.200000 -3.440431
v 3.343684 -0.000000 -2.658599
v 3.343684 0.200000 -2.658599
v 2.806861 -0.000000 -3.706050
v 2.806861 0.200000 -3.706050
v 3.602924 -0.000000 -3.082560
v 3.602924 0.200000 -3.082560
v 2.859015 0.000000 -4.008002
v 2.859015 0.200000 -4.008002
v 3.774215 0.000000 -3.574118
v 3.774215 0.200000 -3.574118
v 2.899349 0.000000 -4.341151
v 2.899349 0.200000 -4.341151
v 3.888508 0.000000 -4.118629
v 3.888508 0.200000 -4.118629
v 2.908153 0.000000 -4.683456
v 2.908153 0.200000 -4.683456
v 3.907885 0.000000 -4.683456
v 3.907885 0.200000 -4.683456
v 2.900102 0.200000 -4.999990
v 2.900102 0.000000 -4.999990
v 3.900102 0.000000 -4.999990
v 3.900102 0.200000 -4.999990
vn -1.0000 0.0000 0.0000
vn 0.9930 0.0000 0.1178
vn 1.0000 0.0000 0.0000
vn 0.0000 0.0000 1.0000
vn 0.0000 -1.0000 0.0000
vn 0.0000 1.0000 0.0000
vn 0.9419 0.0000 0.3358
vn -0.9933 0.0000 -0.1155
vn -0.9427 0.0000 -0.3336
vn -0.8448 0.0000 -0.5350
vn 0.8436 0.0000 0.5370
vn 0.5270 0.0000 0.8499
vn -0.7046 0.0000 -0.7096
vn 0.7029 0.0000 0.7113
vn -0.5290 0.0000 -0.8486
vn -0.2779 0.0000 -0.9606
vn -0.3270 0.0000 -0.9450
vn 0.3247 0.0000 0.9458
vn 0.4056 0.0000 0.9140
vn 0.2870 0.0000 0.9579
vn -0.4390 0.0000 -0.8985
vn 0.6935 0.0000 0.7204
vn -0.5575 0.0000 -0.8302
vn 0.4703 0.0000 0.8825
vn -0.7852 0.0000 -0.6192
vn -0.9348 0.0000 -0.3551
vn 0.8531 0.0000 0.5217
vn 0.9787 0.0000 0.2054
vn -0.9854 0.0000 -0.1702
vn 0.9443 0.0000 0.3291
vn -0.9928 0.0000 -0.1202
vn -0.9997 0.0000 -0.0257
vn 0.9994 0.0000 0.0343
vn 0.0000 0.0000 -1.0000
vn -0.9997 0.0000 0.0254
vn 0.9997 0.0000 -0.0246
usemtl None
s off
f 1//1 2//1 4//1 3//1
f 8//2 7//2 11//2 12//2
f 7//3 8//3 6//3 5//3
f 5//4 6//4 2//4 1//4
f 3//5 7//5 5//5 1//5
f 8//6 4//6 2//6 6//6
f 12//7 11//7 15//7 16//7
f 7//5 3//5 9//5 11//5
f 4//6 8//6 12//6 10//6
f 3//8 4//8 10//8 9//8
f 14//6 16//6 20//6 18//6
f 11//5 9//5 13//5 15//5
f 10//6 12//6 16//6 14//6
f 9//9 10//9 14//9 13//9
f 18//6 20//6 24//6 22//6
f 13//10 14//10 18//10 17//10
f 16//11 15//11 19//11 20//11
f 15//5 13//5 17//5 19//5
f 24//12 23//12 27//12 28//12
f 17//13 18//13 22//13 21//13
f 20//14 19//14 23//14 24//14
f 19//5 17//5 21//5 23//5
f 26//6 28//6 32//6 30//6
f 23//5 21//5 25//5 27//5
f 22//6 24//6 28//6 26//6
f 21//15 22//15 26//15 25//15
f 29//16 30//16 34//16 33//16
f 25//17 26//17 30//17 29//17
f 28//18 27//18 31//18 32//18
f 27//5 25//5 29//5 31//5
f 36//19 35//19 39//19 40//19
f 32//20 31//20 35//20 36//20
f 31//5 29//5 33//5 35//5
f 30//6 32//6 36//6 34//6
f 38//6 40//6 44//6 42//6
f 35//5 33//5 37//5 39//5
f 34//6 36//6 40//6 38//6
f 33//21 34//21 38//21 37//21
f 44//22 43//22 47//22 48//22
f 37//23 38//23 42//23 41//23
f 40//24 39//24 43//24 44//24
f 39//5 37//5 41//5 43//5
f 47//5 45//5 49//5 51//5
f 43//5 41//5 45//5 47//5
f 42//6 44//6 48//6 46//6
f 41//25 42//25 46//25 45//25
f 50//6 52//6 56//6 54//6
f 46//6 48//6 52//6 50//6
f 45//26 46//26 50//26 49//26
f 48//27 47//27 51//27 52//27
f 56//28 55//28 59//28 60//28
f 49//29 50//29 54//29 53//29
f 52//30 51//30 55//30 56//30
f 51//5 49//5 53//5 55//5
f 58//6 60//6 64//6 62//6
f 55//5 53//5 57//5 59//5
f 54//6 56//6 60//6 58//6
f 53//31 54//31 58//31 57//31
f 62//6 64//6 68//6 65//6
f 57//32 58//32 62//32 61//32
f 60//33 59//33 63//33 64//33
f 59//5 57//5 61//5 63//5
f 66//34 65//34 68//34 67//34
f 61//35 62//35 65//35 66//35
f 64//36 63//36 67//36 68//36
f 63//5 61//5 66//5 67//5
