# Blender v2.79 (sub 0) OBJ File: ''
# www.blender.org
mtllib buıldıng.mtl
o Cube
v 1.748854 -0.320400 -4.952782
v 1.748854 -0.320400 4.952783
v -1.748854 -0.320400 4.952782
v -1.748853 -0.320400 -4.952785
v 1.748855 3.177308 -4.952780
v 1.748853 3.177308 4.952785
v -1.748855 3.177308 4.952781
v -1.748854 3.177308 -4.952783
v 1.748854 -0.320400 -1.650927
v 1.748854 -0.320400 1.650928
v -1.748854 -0.320400 1.650926
v -1.748854 -0.320400 -1.650929
v 1.748854 3.177308 -1.650925
v 1.748854 3.177308 1.650930
v -1.748854 3.177308 1.650926
v -1.748854 3.177308 -1.650928
v 1.748854 3.975485 -1.650925
v 1.748854 3.975485 1.650930
v -1.748854 3.975485 1.650926
v -1.748854 3.975485 -1.650928
v 1.748854 -0.320400 -0.990556
v 1.748854 -0.320400 -0.330185
v 1.748854 -0.320400 0.330186
v 1.748854 -0.320400 0.990557
v -1.748854 -0.320400 0.990555
v -1.748854 -0.320400 0.330184
v -1.748854 -0.320400 -0.330187
v -1.748854 -0.320400 -0.990558
v 1.748854 3.177308 -0.990554
v 1.748854 3.177308 -0.330183
v 1.748854 3.177308 0.330188
v 1.748854 3.177308 0.990559
v 1.748854 4.379625 -0.990554
v 1.748854 4.563326 -0.330183
v 1.748854 4.563326 0.330188
v 1.748854 4.379625 0.990559
v -1.748854 4.379625 0.990555
v -1.748854 4.563326 0.330185
v -1.748854 4.563326 -0.330186
v -1.748854 4.379625 -0.990557
v 1.983677 4.274858 1.123564
v 1.983677 3.816451 1.872605
v -1.983677 4.274858 -1.123562
v -1.983677 3.816451 -1.872602
v 1.983677 3.816451 -1.872599
v -1.983677 3.816451 1.872600
v 1.983677 4.274858 -1.123558
v 1.983677 4.483224 -0.374517
v 1.983677 4.483224 0.374523
v -1.983677 4.274858 1.123560
v -1.983677 4.483224 0.374519
v -1.983677 4.483224 -0.374521
v 1.983677 3.957131 1.872605
v -1.983677 3.957131 1.872600
v 1.748854 3.336595 1.650930
v -1.748854 3.339459 -1.650928
v 1.748854 3.339459 -1.650925
v 1.897960 3.170396 -5.093536
v -1.897959 3.170396 -5.093539
v -1.897959 3.170396 -1.510172
v 1.897959 3.170396 -1.510168
v -1.897959 3.346372 -1.510172
v 1.897959 3.346372 -1.510168
v -1.748854 3.336595 1.650926
v 1.907086 3.170102 1.501559
v 1.907085 3.170102 5.102159
v -1.907087 3.170102 5.102153
v -1.907087 3.170102 1.501554
v 1.907086 3.343801 1.501559
v -1.907087 3.343801 1.501554
v 1.748855 2.017956 -4.952781
v 1.748853 2.017956 4.952785
v -1.748854 2.017956 4.952781
v -1.748854 2.017956 -4.952783
v -1.748854 2.017956 1.650926
v -1.748854 2.017956 -1.650928
v 1.748854 2.017956 -1.650926
v 1.748854 2.017956 1.650930
v 1.748854 2.017956 -0.990555
v 1.748854 2.017956 -0.330184
v 1.748854 2.017956 0.330188
v 1.748854 2.017956 0.990559
v -1.748854 2.017956 0.990555
v -1.748854 2.017956 0.330184
v -1.748854 2.017956 -0.330187
v -1.748854 2.017956 -0.990557
v -1.442826 3.177308 -0.990557
v -1.442826 3.177308 -1.650928
v -1.442826 4.379625 -0.990557
v -1.442826 3.975485 -1.650928
v -1.442826 3.975485 1.650926
v -1.442826 3.177308 1.650926
v -1.442826 3.177308 0.990555
v -1.442826 3.177308 0.330185
v -1.442826 3.177308 -0.330186
v -1.442826 4.379625 0.990555
v -1.442826 4.563326 0.330185
v -1.442826 4.563326 -0.330186
v -1.442826 2.017956 1.650926
v -1.442826 2.017956 -1.650928
v -1.442826 2.017956 0.990555
v -1.442826 2.017956 0.330184
v -1.442826 2.017956 -0.330187
v -1.442826 2.017956 -0.990557
vn 0.0000 -1.0000 -0.0000
vn 0.0000 -0.9988 -0.0482
vn 1.0000 0.0000 0.0000
vn -0.0000 -0.0000 1.0000
vn -1.0000 -0.0000 -0.0000
vn 0.0000 0.0000 -1.0000
vn 0.0000 -0.9634 0.2680
vn 0.0000 -0.8529 0.5220
vn 0.0000 1.0000 0.0000
vn 0.0000 -0.9634 -0.2680
vn -0.0000 -0.8125 0.5829
vn 0.2679 -0.9282 -0.2582
vn -0.2679 -0.9282 0.2582
vn 0.0846 -0.8499 0.5201
vn 0.0846 -0.8499 -0.5201
vn 0.2679 -0.9282 0.2582
vn -0.0846 -0.8499 0.5201
vn -0.0846 -0.8499 -0.5201
vn -0.2679 -0.9282 -0.2582
vn 0.0000 -0.8125 -0.5829
vn 0.3228 -0.9465 0.0000
vn -0.3228 -0.9465 -0.0000
vn 0.6865 0.0000 0.7272
vn -0.0000 -0.9988 0.0491
vn 0.0463 -0.9989 0.0000
vn -0.6865 0.0000 0.7272
vn -0.0463 -0.9989 0.0000
vn -0.0000 -0.9988 0.0490
vn 0.6865 0.0000 -0.7272
vn 0.0455 -0.9990 0.0000
vn -0.6865 0.0000 -0.7272
vn -0.0455 -0.9990 0.0000
vn 0.0000 -0.8529 -0.5220
usemtl Material
s off
f 10//1 2//1 3//1 11//1
f 55//2 64//2 70//2 69//2
f 78//3 14//3 6//3 72//3
f 72//4 6//4 7//4 73//4
f 76//5 16//5 8//5 74//5
f 71//6 1//6 4//6 74//6
f 73//5 7//5 15//5 75//5
f 39//7 40//7 89//7 98//7
f 71//3 5//3 13//3 77//3
f 82//3 32//3 14//3 78//3
f 16//4 13//4 57//4 56//4
f 13//6 16//6 20//6 17//6
f 1//1 9//1 12//1 4//1
f 24//1 10//1 11//1 25//1
f 15//4 14//4 18//4 19//4
f 16//4 76//4 100//4 88//4
f 29//3 13//3 17//3 33//3
f 14//3 32//3 36//3 18//3
f 32//3 31//3 35//3 36//3
f 31//3 30//3 34//3 35//3
f 30//3 29//3 33//3 34//3
f 40//8 20//8 90//8 89//8
f 38//1 39//1 98//1 97//1
f 83//9 75//9 99//9 101//9
f 75//6 15//6 92//6 99//6
f 9//1 21//1 28//1 12//1
f 21//1 22//1 27//1 28//1
f 22//1 23//1 26//1 27//1
f 23//1 24//1 25//1 26//1
f 77//3 13//3 29//3 79//3
f 79//3 29//3 30//3 80//3
f 80//3 30//3 31//3 81//3
f 81//3 31//3 32//3 82//3
f 76//9 86//9 104//9 100//9
f 15//6 19//6 91//6 92//6
f 37//10 38//10 97//10 96//10
f 84//9 83//9 101//9 102//9
f 17//11 20//11 44//11 45//11
f 38//12 37//12 50//12 51//12
f 34//13 33//13 47//13 48//13
f 20//14 40//14 43//14 44//14
f 37//15 19//15 46//15 50//15
f 40//16 39//16 52//16 43//16
f 33//17 17//17 45//17 47//17
f 18//18 36//18 41//18 42//18
f 36//19 35//19 49//19 41//19
f 19//20 18//20 42//20 46//20
f 39//21 38//21 51//21 52//21
f 35//22 34//22 48//22 49//22
f 46//4 42//4 53//4 54//4
f 16//23 56//23 62//23 60//23
f 5//24 8//24 59//24 58//24
f 8//25 16//25 60//25 59//25
f 57//26 13//26 61//26 63//26
f 13//27 5//27 58//27 61//27
f 56//28 57//28 63//28 62//28
f 64//29 15//29 68//29 70//29
f 14//6 15//6 64//6 55//6
f 15//30 7//30 67//30 68//30
f 14//31 55//31 69//31 65//31
f 7//2 6//2 66//2 67//2
f 6//32 14//32 65//32 66//32
f 27//5 85//5 86//5 28//5
f 26//5 84//5 85//5 27//5
f 25//5 83//5 84//5 26//5
f 11//5 75//5 83//5 25//5
f 23//3 81//3 82//3 24//3
f 22//3 80//3 81//3 23//3
f 21//3 79//3 80//3 22//3
f 9//3 77//3 79//3 21//3
f 24//3 82//3 78//3 10//3
f 1//3 71//3 77//3 9//3
f 28//5 86//5 76//5 12//5
f 3//5 73//5 75//5 11//5
f 5//6 71//6 74//6 8//6
f 12//5 76//5 74//5 4//5
f 2//4 72//4 73//4 3//4
f 10//3 78//3 72//3 2//3
f 104//5 87//5 88//5 100//5
f 93//5 92//5 91//5 96//5
f 88//5 87//5 89//5 90//5
f 87//5 95//5 98//5 89//5
f 95//5 94//5 97//5 98//5
f 94//5 93//5 96//5 97//5
f 99//5 92//5 93//5 101//5
f 101//5 93//5 94//5 102//5
f 102//5 94//5 95//5 103//5
f 103//5 95//5 87//5 104//5
f 20//4 16//4 88//4 90//4
f 86//9 85//9 103//9 104//9
f 85//9 84//9 102//9 103//9
f 19//33 37//33 96//33 91//33
