# Blender v2.79 (sub 0) OBJ File: ''
# www.blender.org
mtllib Lroof.mtl
o Cube.003_Cube.004
v 1.897960 3.170396 -5.093536
v -1.897959 3.170396 -5.093539
v -1.897959 3.170396 -1.510172
v 1.897959 3.170396 -1.510168
v 1.897960 3.346372 -5.093536
v -1.897959 3.346372 -5.093539
v -1.897959 3.346372 -1.510172
v 1.897959 3.346372 -1.510168
vn 0.0000 1.0000 -0.0000
vn -1.0000 0.0000 -0.0000
vn 0.0000 0.0000 -1.0000
vn 1.0000 0.0000 0.0000
usemtl Material
s off
f 5//1 6//1 7//1 8//1
f 2//2 3//2 7//2 6//2
f 1//3 2//3 6//3 5//3
f 4//4 1//4 5//4 8//4
