# Blender v2.79 (sub 0) OBJ File: 'untitled.blend'
# www.blender.org
mtllib wood.mtl
o Cube_Cube.002
v -0.483186 1.671654 0.078362
v 0.116364 1.605434 -0.378650
v 0.584536 1.734573 0.194635
v -0.015014 1.800793 0.651647
v -1.091287 6.050366 0.546249
v -0.542046 -0.083650 0.000000
v -1.488379 6.026622 1.456203
v -1.633333 6.050366 1.088295
v -0.549241 6.050366 1.088295
v -1.091287 6.050366 1.630341
v 0.000000 -0.088791 0.000000
v 0.000000 -0.083650 0.542046
v 0.000000 -0.083650 -0.542046
v 0.542046 -0.083650 0.000000
v -0.362112 4.877102 1.011840
v 0.237438 4.810883 0.554829
v -0.230734 4.681744 -0.018456
v -0.830284 4.747963 0.438556
v -0.694195 6.074110 0.720387
v -1.126059 5.804132 0.737602
v -0.398987 1.752778 0.479257
v -0.527331 0.357746 0.019591
v -0.647552 4.682569 0.066729
v -0.680921 5.790888 0.320973
v 0.029091 0.341191 -0.501197
v 0.153240 4.729758 0.153933
v -0.262060 5.816716 0.760857
v 0.552668 0.373476 0.048659
v 0.054706 4.876277 0.926656
v -0.707197 5.829959 1.177487
v -0.003753 0.390031 0.569446
v -1.795640 6.032557 1.364226
v -1.389106 6.032557 0.957691
v -0.982572 6.032557 1.364226
v -1.389106 6.032557 1.770760
v -0.684753 6.050365 0.681761
v -1.497822 6.050365 0.681761
v -1.497821 6.050365 1.494829
v -0.684753 6.050365 1.494829
v -0.406534 -0.087506 0.000000
v 0.000000 -0.087506 -0.406534
v 0.406534 -0.087506 0.000000
v 0.000000 -0.087506 0.406534
v -0.406534 -0.083650 0.406534
v -0.406534 -0.083650 -0.406534
v 0.406534 -0.083650 0.406534
v 0.406534 -0.083650 -0.406534
v -0.746085 4.829087 0.839451
v -0.300454 1.606259 -0.293465
v 0.500337 1.653449 -0.206260
v 0.401804 1.799968 0.566462
v -0.109295 3.509521 0.796495
v 0.519007 3.410192 0.382001
v 0.087772 3.216483 -0.206903
v -0.540530 3.315812 0.207591
v -1.097089 5.789051 1.130937
v -0.404648 0.378027 0.424715
v -1.074097 5.754863 0.354385
v -0.380014 0.341397 -0.378267
v -0.313987 5.800062 1.151285
v 0.405352 0.389825 0.446516
v -0.290996 5.765874 0.374733
v 0.429985 0.353195 -0.356466
v -1.613030 6.037175 0.991552
v -1.613030 6.037175 1.593825
v -1.010757 6.037175 0.991552
v -1.010757 6.037175 1.593825
v -0.301137 -0.086506 0.301137
v -0.301137 -0.086506 -0.301137
v 0.301137 -0.086506 -0.301137
v 0.301137 -0.086506 0.301137
v -0.481988 3.437499 0.605667
v -0.334188 3.217721 -0.146882
v 0.460465 3.288506 -0.016075
v 0.312665 3.508284 0.736474
vn -0.9803 -0.0559 0.1893
vn -0.8799 0.0156 -0.4749
vn -0.9145 0.0661 -0.3992
vn -0.9688 0.0075 0.2477
vn -0.1696 0.0936 -0.9811
vn 0.4160 0.1094 -0.9028
vn 0.3685 0.0759 -0.9265
vn -0.2431 0.0952 -0.9653
vn 0.9806 0.0527 -0.1886
vn 0.8805 -0.0098 0.4739
vn 0.9162 -0.0475 0.3979
vn 0.9689 -0.0097 -0.2475
vn 0.1698 -0.0814 0.9821
vn -0.4187 -0.0941 0.9033
vn -0.3712 -0.0463 0.9274
vn 0.2437 -0.0680 0.9675
vn -0.1984 0.5256 -0.8273
vn 0.0223 0.9982 0.0557
vn -0.0128 0.9994 0.0319
vn 0.1618 0.8020 -0.5750
vn -0.9411 0.0631 -0.3322
vn -0.0237 -0.9997 -0.0095
vn -0.0237 -0.9997 0.0095
vn -0.9530 0.0048 0.3030
vn 0.0179 0.9997 0.0179
vn 0.0402 0.9984 -0.0402
vn -0.0171 0.9997 -0.0171
vn -0.0112 0.9999 0.0112
vn -0.4416 -0.8942 0.0740
vn 0.0723 -0.9970 -0.0289
vn 0.5675 -0.7914 0.2270
vn -0.5426 -0.8365 -0.0766
vn 0.5002 0.8513 -0.1584
vn -0.0312 0.9994 0.0125
vn -0.0508 0.9985 -0.0203
vn 0.6943 0.6973 0.1779
vn 0.0834 -0.8212 0.5645
vn -0.3554 0.2899 -0.8886
vn 0.0305 -0.9966 -0.0764
vn -0.0605 -0.8841 0.4633
vn 0.0038 -1.0000 -0.0038
vn 0.0038 -1.0000 0.0038
vn -0.0038 -1.0000 0.0038
vn -0.0038 -1.0000 -0.0038
vn -0.3269 -0.0466 0.9439
vn -0.0095 -0.9997 0.0237
vn 0.0095 -0.9997 0.0237
vn 0.3014 -0.0661 0.9512
vn 0.3258 0.0795 -0.9421
vn 0.0095 -0.9997 -0.0237
vn -0.0095 -0.9997 -0.0237
vn -0.3006 0.0968 -0.9488
vn 0.9423 -0.0412 0.3322
vn 0.0237 -0.9997 0.0095
vn 0.0237 -0.9997 -0.0095
vn 0.9530 -0.0029 -0.3031
vn 0.1288 -0.1547 0.9795
vn -0.2269 -0.3037 0.9254
vn -0.3938 -0.2191 0.8927
vn 0.1692 -0.1135 0.9790
vn 0.8728 0.4452 -0.2001
vn 0.9018 0.3488 0.2553
vn 0.8862 0.1138 0.4491
vn 0.9481 0.2237 -0.2262
vn -0.1506 0.2167 -0.9645
vn 0.2542 0.3422 -0.9046
vn 0.3988 0.1963 -0.8958
vn -0.1695 0.0980 -0.9806
vn -0.9252 -0.3438 0.1604
vn -0.9352 -0.2476 -0.2531
vn -0.8862 -0.1156 -0.4487
vn -0.9482 -0.2232 0.2261
vn 0.3410 -0.8547 0.3915
vn -0.3394 -0.8632 0.3738
vn -0.3088 -0.9021 -0.3013
vn 0.3485 -0.8947 -0.2793
usemtl None
s off
f 1//1 21//1 72//1 55//1
f 1//2 55//2 73//2 49//2
f 1//3 49//3 59//3 22//3
f 1//4 22//4 57//4 21//4
f 2//5 49//5 73//5 54//5
f 2//6 54//6 74//6 50//6
f 2//7 50//7 63//7 25//7
f 2//8 25//8 59//8 49//8
f 3//9 50//9 74//9 53//9
f 3//10 53//10 75//10 51//10
f 3//11 51//11 61//11 28//11
f 3//12 28//12 63//12 50//12
f 4//13 51//13 75//13 52//13
f 4//14 52//14 72//14 21//14
f 4//15 21//15 57//15 31//15
f 4//16 31//16 61//16 51//16
f 5//17 24//17 58//17 37//17
f 5//18 37//18 64//18 33//18
f 5//19 33//19 66//19 36//19
f 5//20 36//20 62//20 24//20
f 6//21 22//21 59//21 45//21
f 6//22 45//22 69//22 40//22
f 6//23 40//23 68//23 44//23
f 6//24 44//24 57//24 22//24
f 7//25 33//25 64//25 32//25
f 7//26 32//26 65//26 35//26
f 7//27 35//27 67//27 34//27
f 7//28 34//28 66//28 33//28
f 8//29 20//29 56//29 38//29
f 8//30 38//30 65//30 32//30
f 8//31 32//31 64//31 37//31
f 8//32 37//32 58//32 20//32
f 9//33 27//33 62//33 36//33
f 9//34 36//34 66//34 34//34
f 9//35 34//35 67//35 39//35
f 9//36 39//36 60//36 27//36
f 10//37 30//37 60//37 39//37
f 10//38 39//38 67//38 35//38
f 10//39 35//39 65//39 38//39
f 10//40 38//40 56//40 30//40
f 11//41 41//41 70//41 42//41
f 11//42 42//42 71//42 43//42
f 11//43 43//43 68//43 40//43
f 11//44 40//44 69//44 41//44
f 12//45 31//45 57//45 44//45
f 12//46 44//46 68//46 43//46
f 12//47 43//47 71//47 46//47
f 12//48 46//48 61//48 31//48
f 13//49 25//49 63//49 47//49
f 13//50 47//50 70//50 41//50
f 13//51 41//51 69//51 45//51
f 13//52 45//52 59//52 25//52
f 14//53 28//53 61//53 46//53
f 14//54 46//54 71//54 42//54
f 14//55 42//55 70//55 47//55
f 14//56 47//56 63//56 28//56
f 15//57 29//57 60//57 30//57
f 15//58 30//58 56//58 48//58
f 15//59 48//59 72//59 52//59
f 15//60 52//60 75//60 29//60
f 16//61 26//61 62//61 27//61
f 16//62 27//62 60//62 29//62
f 16//63 29//63 75//63 53//63
f 16//64 53//64 74//64 26//64
f 17//65 23//65 58//65 24//65
f 17//66 24//66 62//66 26//66
f 17//67 26//67 74//67 54//67
f 17//68 54//68 73//68 23//68
f 18//69 48//69 56//69 20//69
f 18//70 20//70 58//70 23//70
f 18//71 23//71 73//71 55//71
f 18//72 55//72 72//72 48//72
f 19//73 20//73 58//73 24//73
f 19//74 24//74 62//74 27//74
f 19//75 27//75 60//75 30//75
f 19//76 30//76 56//76 20//76
